<svg width="250" height="60" viewBox="0 0 250 60" fill="none" xmlns="http://www.w3.org/2000/svg">
<rect x="0.5" y="0.5" width="249" height="59" rx="11.5" fill="#FFB207" fill-opacity="0.1"/>
<rect x="0.5" y="0.5" width="249" height="59" rx="11.5" stroke="#FFB207" stroke-linecap="round" stroke-linejoin="round" stroke-dasharray="4 5"/>
<path d="M60.6348 36L59.5215 33.0605H53.2422L52.1191 36H49.5605L55 22.2012H57.8223L63.2617 36H60.6348ZM54.082 30.8633H58.6816L56.377 24.7988L54.082 30.8633ZM72.5586 21.5957H74.8047V36H72.5586V34.5352C71.6602 35.6745 70.4688 36.2441 68.9844 36.2441C68.0404 36.2441 67.1842 36.013 66.416 35.5508C65.6478 35.082 65.0456 34.4408 64.6094 33.627C64.1797 32.8132 63.9648 31.9049 63.9648 30.9023C63.9648 29.8997 64.1797 28.9915 64.6094 28.1777C65.0456 27.3639 65.6478 26.7259 66.416 26.2637C67.1842 25.7949 68.0404 25.5605 68.9844 25.5605C70.4753 25.5605 71.6667 26.127 72.5586 27.2598V21.5957ZM69.4238 34.0762C70.3223 34.0762 71.0677 33.7734 71.6602 33.168C72.2591 32.556 72.5586 31.8008 72.5586 30.9023C72.5586 29.9974 72.2591 29.2422 71.6602 28.6367C71.0677 28.0247 70.3223 27.7188 69.4238 27.7188C68.5189 27.7188 67.7637 28.0247 67.1582 28.6367C66.5592 29.2422 66.2598 29.9974 66.2598 30.9023C66.2598 31.8008 66.5592 32.556 67.1582 33.168C67.7637 33.7734 68.5189 34.0762 69.4238 34.0762ZM85.4883 21.5957H87.7344V36H85.4883V34.5352C84.5898 35.6745 83.3984 36.2441 81.9141 36.2441C80.9701 36.2441 80.1139 36.013 79.3457 35.5508C78.5775 35.082 77.9753 34.4408 77.5391 33.627C77.1094 32.8132 76.8945 31.9049 76.8945 30.9023C76.8945 29.8997 77.1094 28.9915 77.5391 28.1777C77.9753 27.3639 78.5775 26.7259 79.3457 26.2637C80.1139 25.7949 80.9701 25.5605 81.9141 25.5605C83.4049 25.5605 84.5964 26.127 85.4883 27.2598V21.5957ZM82.3535 34.0762C83.252 34.0762 83.9974 33.7734 84.5898 33.168C85.1888 32.556 85.4883 31.8008 85.4883 30.9023C85.4883 29.9974 85.1888 29.2422 84.5898 28.6367C83.9974 28.0247 83.252 27.7188 82.3535 27.7188C81.4486 27.7188 80.6934 28.0247 80.0879 28.6367C79.4889 29.2422 79.1895 29.9974 79.1895 30.9023C79.1895 31.8008 79.4889 32.556 80.0879 33.168C80.6934 33.7734 81.4486 34.0762 82.3535 34.0762ZM105.186 36L104.072 33.0605H97.793L96.6699 36H94.1113L99.5508 22.2012H102.373L107.812 36H105.186ZM98.6328 30.8633H103.232L100.928 24.7988L98.6328 30.8633ZM115.674 25.8047H118.174L113.828 36H111.514L107.168 25.8047H109.736L112.695 33.2363L115.674 25.8047ZM127.109 25.8047H129.355V36H127.109V34.5352C126.211 35.6745 125.02 36.2441 123.535 36.2441C122.591 36.2441 121.735 36.013 120.967 35.5508C120.199 35.082 119.596 34.4408 119.16 33.627C118.73 32.8132 118.516 31.9049 118.516 30.9023C118.516 29.8997 118.73 28.9915 119.16 28.1777C119.596 27.3639 120.199 26.7259 120.967 26.2637C121.735 25.7949 122.591 25.5605 123.535 25.5605C125.026 25.5605 126.217 26.127 127.109 27.2598V25.8047ZM123.975 34.0762C124.873 34.0762 125.618 33.7734 126.211 33.168C126.81 32.556 127.109 31.8008 127.109 30.9023C127.109 29.9974 126.81 29.2422 126.211 28.6367C125.618 28.0247 124.873 27.7188 123.975 27.7188C123.07 27.7188 122.314 28.0247 121.709 28.6367C121.11 29.2422 120.811 29.9974 120.811 30.9023C120.811 31.8008 121.11 32.556 121.709 33.168C122.314 33.7734 123.07 34.0762 123.975 34.0762ZM133.145 24.0762C132.741 24.0762 132.402 23.9395 132.129 23.666C131.855 23.3926 131.719 23.0573 131.719 22.6602C131.719 22.25 131.855 21.9115 132.129 21.6445C132.402 21.3776 132.741 21.2441 133.145 21.2441C133.555 21.2441 133.896 21.3776 134.17 21.6445C134.443 21.9115 134.58 22.25 134.58 22.6602C134.58 23.0638 134.443 23.4023 134.17 23.6758C133.896 23.9427 133.555 24.0762 133.145 24.0762ZM132.021 36V25.8047H134.268V36H132.021ZM136.924 36V21.5957H139.17V36H136.924ZM149.844 25.8047H152.09V36H149.844V34.5352C148.945 35.6745 147.754 36.2441 146.27 36.2441C145.326 36.2441 144.469 36.013 143.701 35.5508C142.933 35.082 142.331 34.4408 141.895 33.627C141.465 32.8132 141.25 31.9049 141.25 30.9023C141.25 29.8997 141.465 28.9915 141.895 28.1777C142.331 27.3639 142.933 26.7259 143.701 26.2637C144.469 25.7949 145.326 25.5605 146.27 25.5605C147.76 25.5605 148.952 26.127 149.844 27.2598V25.8047ZM146.709 34.0762C147.607 34.0762 148.353 33.7734 148.945 33.168C149.544 32.556 149.844 31.8008 149.844 30.9023C149.844 29.9974 149.544 29.2422 148.945 28.6367C148.353 28.0247 147.607 27.7188 146.709 27.7188C145.804 27.7188 145.049 28.0247 144.443 28.6367C143.844 29.2422 143.545 29.9974 143.545 30.9023C143.545 31.8008 143.844 32.556 144.443 33.168C145.049 33.7734 145.804 34.0762 146.709 34.0762ZM160.596 25.5605C161.533 25.5605 162.386 25.7949 163.154 26.2637C163.923 26.7259 164.525 27.3672 164.961 28.1875C165.397 29.0013 165.615 29.9062 165.615 30.9023C165.615 31.8984 165.397 32.8066 164.961 33.627C164.525 34.4408 163.923 35.082 163.154 35.5508C162.386 36.013 161.533 36.2441 160.596 36.2441C159.854 36.2441 159.176 36.0944 158.564 35.7949C157.952 35.4954 157.432 35.069 157.002 34.5156V36H154.756V21.5957H157.002V27.2793C157.425 26.7324 157.943 26.3092 158.555 26.0098C159.173 25.7103 159.854 25.5605 160.596 25.5605ZM157.9 33.168C158.506 33.7734 159.258 34.0762 160.156 34.0762C161.055 34.0762 161.803 33.7734 162.402 33.168C163.001 32.556 163.301 31.8008 163.301 30.9023C163.301 30.0039 163.001 29.2487 162.402 28.6367C161.803 28.0247 161.055 27.7188 160.156 27.7188C159.258 27.7188 158.506 28.0247 157.9 28.6367C157.301 29.2487 157.002 30.0039 157.002 30.9023C157.002 31.8008 157.301 32.556 157.9 33.168ZM168.809 24.0762C168.405 24.0762 168.066 23.9395 167.793 23.666C167.52 23.3926 167.383 23.0573 167.383 22.6602C167.383 22.25 167.52 21.9115 167.793 21.6445C168.066 21.3776 168.405 21.2441 168.809 21.2441C169.219 21.2441 169.561 21.3776 169.834 21.6445C170.107 21.9115 170.244 22.25 170.244 22.6602C170.244 23.0638 170.107 23.4023 169.834 23.6758C169.561 23.9427 169.219 24.0762 168.809 24.0762ZM167.686 36V25.8047H169.932V36H167.686ZM172.588 36V21.5957H174.834V36H172.588ZM178.613 24.0762C178.21 24.0762 177.871 23.9395 177.598 23.666C177.324 23.3926 177.188 23.0573 177.188 22.6602C177.188 22.25 177.324 21.9115 177.598 21.6445C177.871 21.3776 178.21 21.2441 178.613 21.2441C179.023 21.2441 179.365 21.3776 179.639 21.6445C179.912 21.9115 180.049 22.25 180.049 22.6602C180.049 23.0638 179.912 23.4023 179.639 23.6758C179.365 23.9427 179.023 24.0762 178.613 24.0762ZM177.49 36V25.8047H179.736V36H177.49ZM188.535 27.8359H185.654V32.6602C185.654 33.1289 185.781 33.4837 186.035 33.7246C186.296 33.959 186.663 34.0762 187.139 34.0762C187.588 34.0762 188.053 33.959 188.535 33.7246V35.8242C187.982 36.1042 187.36 36.2441 186.67 36.2441C185.596 36.2441 184.785 35.9609 184.238 35.3945C183.691 34.8281 183.418 34.0371 183.418 33.0215V27.8359H181.689V25.8047H183.418V23.1582H185.654V25.8047H188.535V27.8359ZM198.057 25.8047H200.557L195.332 37.9434C195.059 38.6009 194.658 39.1152 194.131 39.4863C193.61 39.8574 193.037 40.043 192.412 40.043C191.982 40.043 191.533 39.9486 191.064 39.7598C190.602 39.5775 190.205 39.3366 189.873 39.0371L190.771 37.2988C191.143 37.6895 191.569 37.8848 192.051 37.8848C192.591 37.8848 192.998 37.5951 193.271 37.0156L193.818 35.8828L189.551 25.8047H192.119L195.078 33.2363L198.057 25.8047Z" fill="#FFB207"/>
</svg>
