<svg width="55" height="54" viewBox="0 0 55 54" fill="none" xmlns="http://www.w3.org/2000/svg">
<path fill-rule="evenodd" clip-rule="evenodd" d="M16.6435 17.7745C16.9243 17.7121 17.2165 17.7226 17.4921 17.8049C17.7678 17.8872 18.0178 18.0386 18.2185 18.2447L36.583 37.1155C36.7838 37.3216 36.9285 37.5757 37.0034 37.8535C37.0783 38.1313 37.0809 38.4236 37.011 38.7028C36.9412 38.9819 36.8011 39.2385 36.6041 39.4482C36.4071 39.6579 36.1597 39.8138 35.8855 39.901L7.7605 48.856C7.46185 48.9508 7.1427 48.9605 6.83881 48.8842C6.53492 48.8078 6.25828 48.6484 6.0399 48.4237C5.82151 48.199 5.67 47.918 5.60232 47.612C5.53465 47.3061 5.5535 46.9873 5.65675 46.6915L15.4173 18.8635C15.5124 18.5924 15.6752 18.3501 15.8901 18.1595C16.1051 17.969 16.363 17.8364 16.6435 17.7745ZM17.701 22.5512L9.961 44.6147L32.2608 37.5137L17.701 22.5512ZM31.9323 6.68199C32.2487 6.36598 32.6776 6.18848 33.1248 6.18848C33.5719 6.18848 34.0008 6.36598 34.3173 6.68199C35.7348 8.09949 36.4795 9.82299 36.2028 11.7692C35.9395 13.603 34.8078 15.3287 33.1923 16.9442L27.5673 22.5692C27.4115 22.7303 27.2252 22.8588 27.0193 22.9472C26.8134 23.0355 26.5919 23.0819 26.3679 23.0838C26.1438 23.0856 25.9216 23.0428 25.7143 22.9579C25.5069 22.8729 25.3186 22.7475 25.1602 22.589C25.0018 22.4305 24.8766 22.242 24.7919 22.0346C24.7071 21.8272 24.6645 21.6049 24.6666 21.3809C24.6686 21.1568 24.7153 20.9354 24.8038 20.7296C24.8924 20.5237 25.021 20.3376 25.1823 20.182L30.8073 14.557C32.191 13.171 32.7468 12.082 32.8593 11.2922C32.9583 10.6127 32.7648 9.90174 31.9323 9.06699C31.6162 8.75059 31.4387 8.32168 31.4387 7.87449C31.4387 7.4273 31.6162 6.9984 31.9323 6.68199ZM44.3748 21.3745C43.1058 21.3745 41.6343 22.0022 39.9423 23.692L34.3173 29.317C34.1628 29.4828 33.9765 29.6158 33.7695 29.708C33.5625 29.8002 33.339 29.8498 33.1124 29.8538C32.8858 29.8578 32.6608 29.8161 32.4507 29.7313C32.2405 29.6464 32.0497 29.5201 31.8894 29.3598C31.7292 29.1996 31.6028 29.0087 31.518 28.7986C31.4331 28.5885 31.3914 28.3634 31.3954 28.1368C31.3994 27.9102 31.449 27.6868 31.5412 27.4798C31.6335 27.2728 31.7665 27.0865 31.9323 26.932L37.5572 21.307C39.616 19.2482 41.8953 17.9995 44.3748 17.9995C46.8543 17.9995 49.1335 19.2482 51.1923 21.307C51.358 21.4615 51.491 21.6478 51.5833 21.8548C51.6755 22.0618 51.7251 22.2852 51.7291 22.5118C51.7331 22.7384 51.6914 22.9635 51.6065 23.1736C51.5217 23.3837 51.3953 23.5746 51.2351 23.7348C51.0748 23.8951 50.884 24.0214 50.6738 24.1063C50.4637 24.1911 50.2387 24.2328 50.0121 24.2288C49.7855 24.2248 49.562 24.1752 49.355 24.083C49.148 23.9908 48.9617 23.8578 48.8073 23.692C47.1152 22.0022 45.6437 21.3745 44.3748 21.3745Z" fill="#FFB207"/>
<path d="M23 7.875C23.5967 7.875 24.169 7.63795 24.591 7.21599C25.0129 6.79403 25.25 6.22174 25.25 5.625C25.25 5.02826 25.0129 4.45597 24.591 4.03401C24.169 3.61205 23.5967 3.375 23 3.375C22.4033 3.375 21.831 3.61205 21.409 4.03401C20.9871 4.45597 20.75 5.02826 20.75 5.625C20.75 6.22174 20.9871 6.79403 21.409 7.21599C21.831 7.63795 22.4033 7.875 23 7.875ZM47.75 6.75C48.3467 6.75 48.919 6.51295 49.341 6.09099C49.7629 5.66903 50 5.09674 50 4.5C50 3.90326 49.7629 3.33097 49.341 2.90901C48.919 2.48705 48.3467 2.25 47.75 2.25C47.1533 2.25 46.581 2.48705 46.159 2.90901C45.7371 3.33097 45.5 3.90326 45.5 4.5C45.5 5.09674 45.7371 5.66903 46.159 6.09099C46.581 6.51295 47.1533 6.75 47.75 6.75ZM47.75 32.625C48.3467 32.625 48.919 32.3879 49.341 31.966C49.7629 31.544 50 30.9717 50 30.375C50 29.7783 49.7629 29.206 49.341 28.784C48.919 28.3621 48.3467 28.125 47.75 28.125C47.1533 28.125 46.581 28.3621 46.159 28.784C45.7371 29.206 45.5 29.7783 45.5 30.375C45.5 30.9717 45.7371 31.544 46.159 31.966C46.581 32.3879 47.1533 32.625 47.75 32.625ZM44.375 42.75C44.9717 42.75 45.544 42.5129 45.966 42.091C46.3879 41.669 46.625 41.0967 46.625 40.5C46.625 39.9033 46.3879 39.331 45.966 38.909C45.544 38.4871 44.9717 38.25 44.375 38.25C43.7783 38.25 43.206 38.4871 42.784 38.909C42.3621 39.331 42.125 39.9033 42.125 40.5C42.125 41.0967 42.3621 41.669 42.784 42.091C43.206 42.5129 43.7783 42.75 44.375 42.75Z" fill="#FFB207"/>
</svg>
