<svg width="55" height="54" viewBox="0 0 55 54" fill="none" xmlns="http://www.w3.org/2000/svg">
<mask id="mask0_189_23561" style="mask-type:luminance" maskUnits="userSpaceOnUse" x="5" y="4" width="46" height="47">
<path d="M48.9875 48.4875V6.5125H7.0125V48.4875H48.9875Z" fill="white" stroke="white" stroke-width="4.025"/>
</mask>
<g mask="url(#mask0_189_23561)">
<path d="M20.9948 31.0938H15.6016C10.7389 31.0938 6.79688 35.0357 6.79688 39.8984C6.79688 44.7611 10.7389 48.7031 15.6016 48.7031H40.3984C45.2611 48.7031 49.2031 44.7611 49.2031 39.8984C49.2031 35.0357 45.2611 31.0938 40.3984 31.0938H34.286" stroke="#FFB207" stroke-width="4.025" stroke-miterlimit="10" stroke-linecap="round" stroke-linejoin="round"/>
<path d="M40.1289 39.6648C39.9999 39.6648 39.8953 39.7694 39.8953 39.8984C39.8953 40.0274 39.9999 40.132 40.1289 40.132C40.2579 40.132 40.3625 40.0274 40.3625 39.8984C40.3625 39.7694 40.2579 39.6648 40.1289 39.6648ZM32.043 39.6648C31.914 39.6648 31.8094 39.7694 31.8094 39.8984C31.8094 40.0274 31.914 40.132 32.043 40.132C32.172 40.132 32.2766 40.0274 32.2766 39.8984C32.2766 39.7694 32.172 39.6648 32.043 39.6648ZM15.8711 39.6648C15.7421 39.6648 15.6375 39.7694 15.6375 39.8984C15.6375 40.0274 15.7421 40.132 15.8711 40.132C16.0001 40.132 16.1047 40.0274 16.1047 39.8984C16.1047 39.7694 16.0001 39.6648 15.8711 39.6648ZM23.957 40.132C24.086 40.132 24.1906 40.0274 24.1906 39.8984C24.1906 39.7694 24.086 39.6648 23.957 39.6648C23.828 39.6648 23.7234 39.7694 23.7234 39.8984C23.7234 40.0274 23.828 40.132 23.957 40.132Z" fill="#FFB207" stroke="#FFB207" stroke-width="4.025"/>
<path d="M27.6406 27.6437C27.7696 27.6437 27.8742 27.5392 27.8742 27.4102C27.8742 27.2812 27.7696 27.1766 27.6406 27.1766C27.5116 27.1766 27.407 27.2812 27.407 27.4102C27.407 27.5392 27.5116 27.6437 27.6406 27.6437Z" fill="#FFB207" stroke="#FFB207" stroke-width="4.025"/>
<path d="M27.6442 21.54V21.4511C27.6442 18.9861 28.8996 16.6627 31.0174 15.3957C32.3975 14.5701 33.2109 13.2269 33.2109 11.7103C33.2109 9.2 31.1935 7.16504 28.6794 7.16504C26.7422 7.16504 24.5859 8.15332 22.7891 10.2197" stroke="#FFB207" stroke-width="4.025" stroke-miterlimit="10" stroke-linecap="round" stroke-linejoin="round"/>
</g>
</svg>
