<svg width="150" height="150" viewBox="0 0 150 150" fill="none" xmlns="http://www.w3.org/2000/svg">
<path opacity="0.25" d="M136.324 108.339C134.805 109.842 133.004 111.084 130.977 112.002C127.725 114.394 123.568 115.788 118.816 115.788C108.833 115.788 99.0927 109.652 93.8492 100.946H88.7576C88.1563 100.946 87.5421 100.461 87.3805 99.8597L84.61 89.5149C84.4483 88.9168 84.804 88.4319 85.4052 88.4319H89.9214C89.7242 84.2293 90.6973 80.3823 92.5949 77.1948H82.3955C81.7943 77.1948 81.1768 76.7067 81.0184 76.1086L78.2479 65.767C78.0863 65.169 78.4419 64.6808 79.0432 64.6808H89.388C89.9861 64.6808 90.6035 65.169 90.7652 65.767L93.4742 75.8662C95.1262 73.5709 97.305 71.6862 99.9009 70.3479L98.6757 65.767C98.5173 65.169 98.8697 64.6808 99.471 64.6808H109.813C110.411 64.6808 111.028 65.169 111.19 65.767L111.306 66.2002C111.836 66.1647 112.376 66.1453 112.926 66.1453C117.229 66.1453 121.486 67.2832 125.356 69.2778L121.845 56.7832H22.4473L31.4505 101.033C31.5184 101.066 31.5895 101.101 31.6606 101.133C36.4904 103.484 39.5227 107.292 38.7048 109.852C38.666 109.972 38.6208 110.088 38.5658 110.201L36.513 114.42C36.1477 115.173 35.443 115.71 34.5055 116.03L35.11 119.004L35.9602 123.181H64.4246L64.3762 122.334C64.3665 122.14 64.3697 121.943 64.3858 121.745C64.7415 117.566 71.4074 113.893 79.7802 113.415C88.1499 112.936 95.194 115.817 96.0281 119.929C96.0669 120.123 96.0927 120.317 96.1024 120.514L96.2576 123.178H140.504L136.324 108.339ZM40.1725 76.1119L37.402 65.7703C37.2404 65.1722 37.596 64.6841 38.1973 64.6841H48.5421C49.1402 64.6841 49.7576 65.1722 49.916 65.7703L52.6897 76.1119C52.8481 76.7099 52.4925 77.1981 51.8945 77.1981H41.5529C40.9483 77.1981 40.3309 76.7099 40.1725 76.1119ZM58.2533 100.949H47.9117C47.3104 100.949 46.6962 100.464 46.5346 99.8629L43.7641 89.5181C43.6024 88.9201 43.958 88.4351 44.5593 88.4351H54.9009C55.499 88.4351 56.1165 88.9201 56.2781 89.5181L59.0486 99.8629C59.2102 100.464 58.8546 100.949 58.2533 100.949ZM60.5938 76.1119L57.8233 65.7703C57.6617 65.1722 58.0173 64.6841 58.6186 64.6841H68.9602C69.5583 64.6841 70.1757 65.1722 70.3374 65.7703L73.1078 76.1119C73.2695 76.7099 72.9139 77.1981 72.3126 77.1981H61.971C61.3697 77.1981 60.7555 76.7099 60.5938 76.1119ZM78.6779 100.949H68.333C67.7318 100.949 67.1175 100.464 66.9559 99.8629L64.1854 89.5181C64.027 88.9201 64.3794 88.4351 64.9807 88.4351H75.3255C75.9236 88.4351 76.541 88.9201 76.6994 89.5181L79.4731 99.8629C79.6315 100.464 79.2759 100.949 78.6779 100.949Z" fill="#2C3639" fill-opacity="0.26"/>
<path d="M140.922 123.507H95.9413L95.7699 120.54C95.7602 120.359 95.7376 120.184 95.702 120C94.8971 116.027 87.9079 113.276 79.7904 113.741C71.6697 114.207 65.0426 117.737 64.6999 121.778C64.687 121.962 64.6837 122.143 64.6934 122.321L64.7613 123.507H35.6923L34.1277 115.82L34.396 115.726C35.285 115.425 35.896 114.941 36.2161 114.281L38.2689 110.062C38.3173 109.962 38.3594 109.862 38.3949 109.755C39.1708 107.337 36.1482 103.678 31.5189 101.428C31.451 101.395 31.3799 101.363 31.312 101.331L31.1633 101.263L22.0469 56.46H122.075L125.851 69.905L125.191 69.5656C121.257 67.5386 117.009 66.4653 112.91 66.4653C112.38 66.4653 111.843 66.4847 111.313 66.5235L111.048 66.5429L110.86 65.8544C110.738 65.3953 110.249 65.0074 109.797 65.0074H99.4553C99.2775 65.0074 99.1288 65.072 99.0383 65.1852C98.9445 65.308 98.9186 65.4891 98.9736 65.6863L100.27 70.5192L100.04 70.6388C97.4962 71.9481 95.3755 73.7714 93.7268 76.0569L93.3292 76.6097L90.4456 65.8544C90.3227 65.3953 89.8378 65.0074 89.382 65.0074H79.0372C78.8594 65.0074 78.7107 65.072 78.6202 65.1852C78.5264 65.308 78.5005 65.4858 78.5523 65.6863L81.3227 76.0278C81.4456 76.4869 81.9337 76.8748 82.3895 76.8748H93.1579L92.8669 77.363C90.9596 80.5699 90.0512 84.391 90.2387 88.4222L90.2548 88.7617H85.3992C85.2182 88.7617 85.0695 88.8231 84.9822 88.9395C84.8852 89.0656 84.8626 89.2401 84.9143 89.4373L87.6848 99.7822C87.8077 100.238 88.2958 100.626 88.7516 100.626H94.0275L94.1212 100.784C99.4941 109.703 109.186 115.468 118.813 115.468C123.336 115.468 127.474 114.181 130.781 111.747L130.839 111.714C132.817 110.816 134.589 109.603 136.095 108.113L136.483 107.725L140.922 123.507ZM96.5523 122.861H140.065L136.154 108.947C134.689 110.314 133.005 111.436 131.136 112.286C127.723 114.789 123.462 116.111 118.813 116.111C109.021 116.111 99.1708 110.292 93.6622 101.269H88.7549C88.0081 101.269 87.2645 100.687 87.0641 99.9438L84.2936 89.599C84.1902 89.211 84.2549 88.8231 84.4714 88.5386C84.6848 88.2606 85.0146 88.1087 85.4025 88.1087H89.5824C89.4596 84.2779 90.3033 80.6345 92.0329 77.5182H82.3928C81.6428 77.5182 80.9025 76.9363 80.702 76.1927L77.9316 65.8511C77.8281 65.46 77.8928 65.0753 78.1061 64.7875C78.3195 64.5095 78.6493 64.3576 79.0372 64.3576H89.382C90.132 64.3576 90.8723 64.9395 91.0695 65.683L93.604 75.1388C95.1977 73.086 97.1827 71.4212 99.5135 70.183L98.3561 65.8511C98.2495 65.46 98.3174 65.072 98.5339 64.7875C98.7473 64.5095 99.077 64.3576 99.465 64.3576H109.807C110.553 64.3576 111.294 64.9395 111.494 65.683L111.543 65.8608C112.002 65.8317 112.464 65.822 112.92 65.822C116.896 65.822 121.002 66.8048 124.842 68.6636L121.596 57.1097H22.8389L31.729 100.813C31.7516 100.826 31.7742 100.836 31.7969 100.846C36.7915 103.277 39.8917 107.188 39.0059 109.956C38.9607 110.088 38.9089 110.221 38.8475 110.347L36.7947 114.566C36.4391 115.299 35.7764 115.875 34.868 116.24L36.2161 122.861H64.0727L64.0436 122.357C64.0339 122.15 64.0372 121.936 64.0533 121.723C64.2376 119.583 65.9607 117.517 68.9122 115.91C71.8184 114.326 75.6686 113.327 79.7516 113.095C83.8314 112.862 87.7721 113.415 90.84 114.653C93.9564 115.91 95.909 117.763 96.3324 119.871C96.3745 120.081 96.4003 120.291 96.4133 120.501L96.549 122.861H96.5523Z" fill="#2C3639" fill-opacity="0.26"/>
<path d="M51.8903 77.5212H41.5488C40.802 77.5212 40.0584 76.9393 39.8613 76.1958L37.0908 65.8542C36.9841 65.463 37.052 65.0783 37.2653 64.7906C37.4787 64.5126 37.8084 64.3574 38.1964 64.3574H48.5412C49.2912 64.3574 50.0283 64.9393 50.2287 65.6829L52.9992 76.0244C53.1026 76.4156 53.038 76.8035 52.8181 77.0848C52.6048 77.366 52.275 77.5212 51.8903 77.5212ZM38.1931 65.004C38.0121 65.004 37.8666 65.0686 37.7761 65.1818C37.6824 65.3046 37.6565 65.4824 37.7115 65.6829L40.4819 76.0244C40.6048 76.4835 41.0929 76.8714 41.5455 76.8714H51.8871C52.0681 76.8714 52.2136 76.8068 52.3041 76.6936C52.3979 76.5675 52.4238 76.3897 52.372 76.1926L49.6016 65.851C49.4787 65.3919 48.9906 65.004 48.538 65.004H38.1931Z" fill="#2C3639" fill-opacity="0.26"/>
<path d="M58.2514 101.273H47.9098C47.1631 101.273 46.4195 100.691 46.2191 99.9474L43.4486 89.6026C43.3452 89.2114 43.4098 88.8267 43.6264 88.5423C43.8398 88.2642 44.1695 88.1123 44.5575 88.1123H54.899C55.6458 88.1123 56.3861 88.6942 56.5898 89.4377L59.3603 99.7826C59.4637 100.174 59.399 100.558 59.1825 100.843C58.9691 101.118 58.6394 101.273 58.2514 101.273ZM44.5575 88.7589C44.3764 88.7589 44.2309 88.8203 44.1404 88.9367C44.0467 89.0627 44.0208 89.2373 44.0725 89.4345L46.843 99.7793C46.9659 100.235 47.454 100.623 47.9098 100.623H58.2514C58.4325 100.623 58.5779 100.558 58.6684 100.445C58.7622 100.319 58.7881 100.145 58.7363 99.9442L55.9659 89.5994C55.843 89.1403 55.3549 88.7556 54.9023 88.7556L44.5575 88.7589Z" fill="#2C3639" fill-opacity="0.26"/>
<path d="M72.3099 77.5212H61.9683C61.2216 77.5212 60.478 76.9393 60.2776 76.1958L57.5071 65.8542C57.4037 65.463 57.4683 65.0751 57.6881 64.7906C57.9015 64.5126 58.2313 64.3574 58.6192 64.3574H68.9608C69.7075 64.3574 70.4478 64.9393 70.6483 65.6829L73.4188 76.0244C73.5222 76.4156 73.4575 76.8003 73.2442 77.0848C73.0276 77.366 72.6978 77.5212 72.3099 77.5212ZM60.9015 76.0277C61.0276 76.4867 61.5125 76.8747 61.9683 76.8747H72.3099C72.4877 76.8747 72.6364 76.81 72.7269 76.6969C72.8207 76.574 72.8466 76.3962 72.7948 76.1958L70.0244 65.8542C69.9015 65.3951 69.4134 65.0072 68.9608 65.0072H58.6192C58.4414 65.0072 58.2927 65.0719 58.2022 65.185C58.1084 65.3079 58.0825 65.4889 58.1375 65.6861L60.9015 76.0277Z" fill="#2C3639" fill-opacity="0.26"/>
<path d="M78.6767 101.273H68.3319C67.5819 101.273 66.8415 100.691 66.6443 99.9474L63.8739 89.6026C63.7672 89.2114 63.8351 88.8267 64.0517 88.5423C64.265 88.2642 64.5948 88.1123 64.9827 88.1123H75.3275C76.0775 88.1123 76.8146 88.6942 77.015 89.4377L79.7855 99.7826C79.889 100.174 79.8243 100.558 79.6045 100.843C79.3911 101.121 79.0614 101.273 78.6767 101.273ZM64.9795 88.7589C64.8017 88.7589 64.653 88.8203 64.5625 88.9367C64.4687 89.0627 64.4428 89.2373 64.4946 89.4377L67.265 99.7826C67.3879 100.238 67.876 100.626 68.3286 100.626H78.6734C78.8512 100.626 79 100.562 79.0872 100.449C79.181 100.326 79.2068 100.148 79.1551 99.9474L76.3814 89.6026C76.2586 89.1436 75.7737 88.7589 75.3178 88.7589H64.9795Z" fill="#2C3639" fill-opacity="0.26"/>
<path opacity="0.5" d="M121.835 56.7868H22.4472L19.5312 42.4495H43.444C43.4925 43.164 43.4666 43.8881 43.3858 44.5993V44.6025C43.208 45.7469 42.8944 46.8687 42.4612 47.9387C42.4612 47.942 42.4612 47.942 42.458 47.9452C42.3901 48.1036 42.3157 48.2588 42.2381 48.4172C42.0216 48.8698 41.9149 49.3385 42.0539 49.8364C42.1735 50.2631 42.5032 50.7254 42.9009 50.9355C43.3276 51.1618 43.8448 51.275 44.32 51.1198C44.7565 50.9808 45.2123 50.7028 45.4192 50.2728C45.9978 49.0702 46.4731 47.8062 46.7608 46.5034C47.0517 45.1844 47.2231 43.804 47.1293 42.4495H64.6735C64.722 43.164 64.6961 43.8849 64.6153 44.5993V44.6025C64.4375 45.7437 64.1207 46.8655 63.6875 47.9387C63.6875 47.942 63.6843 47.942 63.6843 47.9452C63.6132 48.1036 63.542 48.2588 63.4644 48.4172C63.2446 48.8698 63.1379 49.3385 63.2769 49.8331C63.3966 50.2599 63.7231 50.7254 64.1239 50.9355C64.5539 51.1618 65.0679 51.275 65.5431 51.1198C65.9763 50.9808 66.4353 50.7028 66.6422 50.2728C67.2241 49.0702 67.6961 47.8062 67.9838 46.5034C68.2748 45.1844 68.4429 43.8008 68.3524 42.4463H85.8998C85.9483 43.164 85.9224 43.8816 85.8416 44.5961V44.5993C85.6638 45.7437 85.347 46.8655 84.9138 47.9387C84.9138 47.942 84.9138 47.942 84.9106 47.9452C84.8394 48.1036 84.7683 48.262 84.6907 48.4172C84.4741 48.8698 84.3675 49.3385 84.5065 49.8331C84.6228 50.2599 84.9526 50.7254 85.3502 50.9323C85.7769 51.1586 86.2942 51.2717 86.7694 51.1165C87.2058 50.9775 87.6616 50.6995 87.8685 50.2728C88.4504 49.067 88.9224 47.8062 89.2101 46.5002C89.5011 45.1812 89.6692 43.8008 89.5787 42.4463H107.123C107.171 43.1607 107.145 43.8849 107.065 44.5961V44.6058C106.887 45.7502 106.573 46.8719 106.14 47.942C106.14 47.9452 106.14 47.9452 106.137 47.9484C106.069 48.1068 105.995 48.2653 105.92 48.4204C105.7 48.873 105.597 49.3418 105.733 49.8396C105.852 50.2663 106.182 50.7318 106.58 50.9387C107.006 51.165 107.524 51.2782 107.999 51.123C108.435 50.984 108.891 50.706 109.098 50.276C109.68 49.0734 110.152 47.8094 110.44 46.5066C110.731 45.1877 110.899 43.8073 110.808 42.4528H117.804L121.835 56.79V56.7868Z" fill="#2C3639" fill-opacity="0.26"/>
<path d="M122.261 57.1062H22.1812L19.2588 42.7495C19.2265 42.5944 19.2685 42.436 19.3655 42.3131C19.4657 42.1903 19.6112 42.1191 19.7728 42.1191H43.7437L43.7663 42.4198C43.8148 43.1181 43.7954 43.8551 43.7082 44.6084L43.7049 44.6439C43.5271 45.7754 43.2168 46.9036 42.7836 47.9931V48.0222L42.7448 48.0868C42.6769 48.2452 42.6058 48.3972 42.5314 48.5523C42.3148 48.9952 42.2663 49.3735 42.3666 49.742C42.4668 50.1073 42.7545 50.4855 43.0487 50.6439C43.2879 50.77 43.7534 50.9575 44.2189 50.8088C44.4258 50.7409 44.9269 50.5437 45.1273 50.1299C45.7351 48.8691 46.1812 47.6213 46.4431 46.4316C46.7631 44.9866 46.886 43.6547 46.8051 42.4683L46.7825 42.1224H64.9765L64.9991 42.423C65.0476 43.1084 65.0282 43.8454 64.9409 44.6116L64.9377 44.6472C64.7631 45.7786 64.4495 46.9069 64.0163 47.9963V48.0351L63.9776 48.0933C63.9097 48.2452 63.8385 48.3972 63.7674 48.5523C63.5541 48.9952 63.4991 49.3735 63.6026 49.742C63.706 50.1073 63.9937 50.4888 64.2879 50.6439C64.5271 50.77 64.9959 50.9575 65.4582 50.8088C65.6651 50.7409 66.1661 50.5437 66.3666 50.1299C66.9743 48.8691 67.4204 47.6245 67.6823 46.4316C68.0023 44.9866 68.1252 43.6515 68.0444 42.4683L68.0217 42.1224H86.2157L86.2383 42.423C86.2868 43.1181 86.2642 43.8551 86.1801 44.6116L86.1769 44.6472C86.0023 45.7786 85.6888 46.9069 85.2556 47.9963V48.0222L85.22 48.0868C85.1521 48.2452 85.081 48.4004 85.0034 48.5556C84.79 48.9985 84.7383 49.3767 84.8385 49.7452C84.9388 50.1105 85.2265 50.4888 85.5207 50.6472C85.7599 50.7732 86.2254 50.9607 86.6877 50.812C86.8946 50.7441 87.3957 50.5469 87.5961 50.1332C88.2071 48.8724 88.65 47.6245 88.9118 46.4349C89.2319 44.9898 89.3547 43.6579 89.2739 42.4715L89.2513 42.1256H107.442L107.465 42.4263C107.513 43.1213 107.49 43.8584 107.406 44.6148L107.403 44.6504C107.225 45.7819 106.915 46.9101 106.482 47.9995V48.0286L106.446 48.0933C106.378 48.2517 106.307 48.4036 106.23 48.5588C106.013 49.0017 105.965 49.3799 106.065 49.7485C106.165 50.1138 106.453 50.492 106.75 50.6504C106.986 50.7765 107.455 50.964 107.917 50.8153C108.124 50.7474 108.625 50.5502 108.826 50.1364C109.437 48.8756 109.879 47.6278 110.141 46.4381C110.461 44.9931 110.584 43.6612 110.503 42.4747L110.481 42.1288H118.065L122.277 57.1127H122.261V57.1062ZM22.7114 56.4597H121.411L117.564 42.7689H111.153C111.195 43.9263 111.063 45.2032 110.759 46.5707C110.484 47.812 110.025 49.1019 109.391 50.4112C109.175 50.8605 108.703 51.2291 108.101 51.423C107.591 51.5879 106.996 51.5168 106.43 51.2161C105.978 50.9769 105.573 50.4564 105.425 49.9166C105.279 49.3961 105.347 48.8594 105.632 48.2743C105.706 48.1191 105.777 47.9672 105.842 47.8153C106.269 46.7549 106.572 45.6622 106.744 44.5631V44.5599C106.818 43.9457 106.841 43.3444 106.818 42.7722H89.9204C89.9625 43.9295 89.8299 45.2064 89.526 46.5739C89.2513 47.8153 88.7922 49.1051 88.1618 50.4144C87.942 50.8638 87.4732 51.2323 86.8687 51.4263C86.3612 51.5911 85.7663 51.52 85.2006 51.2194C84.748 50.9801 84.3439 50.4597 84.1952 49.9198C84.053 49.3993 84.1209 48.8627 84.4021 48.2775C84.4765 48.1256 84.5476 47.9737 84.6123 47.8217V47.8185C85.0422 46.7582 85.3461 45.6622 85.5174 44.5663V44.5631C85.5885 43.9489 85.6144 43.3476 85.5918 42.7754H68.6941C68.7362 43.9327 68.6036 45.2097 68.303 46.5771C68.0282 47.8217 67.5659 49.1148 66.9355 50.4176C66.7189 50.867 66.2469 51.2355 65.6457 51.4295C65.1349 51.5944 64.5433 51.5232 63.9743 51.2226C63.5217 50.9834 63.1176 50.4629 62.9689 49.923C62.8235 49.4025 62.8913 48.8627 63.1758 48.2775C63.2405 48.145 63.3019 48.0125 63.3633 47.8767V47.8444L63.3989 47.7894C63.8224 46.7388 64.1198 45.6525 64.2911 44.5663V44.5631C64.3622 43.9392 64.3881 43.3411 64.3655 42.7754H47.4678C47.5099 43.9327 47.3773 45.2097 47.0735 46.5771C46.7987 47.8185 46.3396 49.1084 45.7092 50.4176C45.4894 50.867 45.0207 51.2355 44.4161 51.4295C43.9053 51.5944 43.3138 51.5232 42.748 51.2226C42.2954 50.9834 41.8913 50.4629 41.7426 49.923C41.5972 49.4025 41.665 48.8659 41.9495 48.2808C42.0239 48.1256 42.095 47.9737 42.1597 47.8217C42.5864 46.7614 42.8903 45.6655 43.0616 44.5696V44.5663C43.136 43.9521 43.1586 43.3508 43.136 42.7786H19.9215L22.7049 56.4694H22.7114V56.4597Z" fill="#2C3639" fill-opacity="0.26"/>
<path d="M46.7577 46.5033C46.4667 47.8061 45.998 49.0701 45.4161 50.2727C45.2092 50.6994 44.7501 50.9774 44.3169 51.1197C43.845 51.2716 43.3245 51.1585 42.8978 50.9354C42.5001 50.7253 42.1704 50.2598 42.054 49.833C41.915 49.3352 42.0217 48.8664 42.2383 48.4171C42.3159 48.2587 42.387 48.1035 42.4581 47.9451C42.4581 47.9419 42.4613 47.9386 42.4613 47.9386C42.8945 46.8654 43.2081 45.7436 43.3891 44.6024V44.5992C43.47 43.8848 43.4958 43.1671 43.4473 42.4494C43.4409 42.3169 43.4279 42.1843 43.415 42.0518C43.3277 41.499 43.1855 40.9559 42.985 40.4322C42.8137 40.0604 42.61 39.7048 42.3708 39.3718C42.0863 39.0356 41.7728 38.7253 41.4333 38.4473C41.4301 38.444 41.4301 38.444 41.4269 38.444C41.0454 38.1692 40.6413 37.9332 40.2113 37.7361C40.2113 37.7361 40.2081 37.736 40.2081 37.7328C39.7685 37.5679 39.3126 37.4419 38.8471 37.3643H38.8439C38.3299 37.3158 37.8126 37.3158 37.2986 37.3675C37.2954 37.3675 37.2922 37.3675 37.2857 37.3707C36.7329 37.4645 36.1898 37.6164 35.6628 37.8169C35.6596 37.8169 35.6564 37.8201 35.6532 37.8233C35.11 38.069 34.5896 38.3697 34.1079 38.722C33.6682 39.0809 33.2609 39.485 32.9053 39.9246C32.9053 39.9246 32.9053 39.9246 32.9021 39.9279C32.6014 40.3481 32.3396 40.7942 32.1262 41.2598C32.1262 41.2598 32.123 41.263 32.1262 41.263C31.9775 41.6542 31.8644 42.0518 31.7803 42.4591H28.082C28.1047 42.2587 28.1305 42.0615 28.1596 41.8611C28.2307 41.3697 28.3471 40.8912 28.5152 40.4257C28.9516 39.2102 29.5788 38.1498 30.4193 37.1703C31.137 36.3363 32.0292 35.6186 32.9764 35.0658C33.9269 34.5098 34.9969 34.0766 36.0831 33.8632C36.7006 33.7404 37.3374 33.6595 37.9646 33.6498C38.6014 33.6369 39.248 33.7145 39.8751 33.8276C40.3568 33.9117 40.832 34.0475 41.2878 34.2317C41.9021 34.4742 42.4969 34.7425 43.0432 35.1078C44.2426 35.9031 45.2965 36.944 45.985 38.2177C46.693 39.5302 47.0325 40.9623 47.1327 42.4397C47.1327 42.4462 47.1327 42.4526 47.1327 42.4591C47.2232 43.8104 47.0551 45.194 46.7609 46.513L46.7577 46.5033Z" fill="#2C3639" fill-opacity="0.26"/>
<path d="M67.9855 46.5033C67.6946 47.8061 67.2226 49.0701 66.6407 50.2727C66.4338 50.6994 65.978 50.9774 65.5416 51.1197C65.0696 51.2716 64.5491 51.1585 64.1191 50.9354C63.7215 50.7253 63.395 50.2598 63.2754 49.833C63.1364 49.3352 63.2431 48.8664 63.4629 48.4171C63.5405 48.2587 63.6084 48.1035 63.6795 47.9451C63.6795 47.9419 63.6827 47.9386 63.6827 47.9386C64.1127 46.8654 64.4295 45.7436 64.6073 44.6024V44.5992C64.6913 43.8848 64.7172 43.1671 64.6655 42.4494C64.659 42.3169 64.6461 42.1843 64.6331 42.0518C64.5459 41.499 64.4036 40.9559 64.2032 40.4322C64.0351 40.0604 63.8282 39.7048 63.5922 39.3718C63.3077 39.0356 62.9909 38.7253 62.6547 38.4473C62.6515 38.444 62.6515 38.444 62.645 38.444C62.2635 38.1692 61.8594 37.9332 61.4327 37.7361H61.4295C61.4295 37.7361 61.4262 37.736 61.4262 37.7328C60.9866 37.5679 60.5275 37.4419 60.0653 37.3643H60.0588C59.5448 37.3158 59.0308 37.3158 58.5168 37.3675C58.5135 37.3675 58.5103 37.3675 58.5038 37.3707C57.951 37.4645 57.4079 37.6164 56.8842 37.8169C56.881 37.8169 56.8778 37.8201 56.8713 37.8233C56.3282 38.069 55.8077 38.3697 55.326 38.722C54.8864 39.0809 54.4791 39.485 54.1202 39.9246C54.1202 39.9246 54.1202 39.9246 54.1202 39.9279C53.8196 40.3481 53.5577 40.7942 53.3444 41.2598C53.3411 41.2598 53.3411 41.263 53.3411 41.263C53.1924 41.6542 53.0793 42.0518 52.9985 42.4591H49.3066C49.3293 42.2587 49.3551 42.0615 49.3842 41.8611C49.4521 41.3697 49.5717 40.8912 49.7398 40.4257C50.1763 39.2102 50.8034 38.1498 51.6407 37.1703C52.3584 36.3363 53.2506 35.6186 54.1978 35.0658C55.1515 34.5098 56.2215 34.0766 57.3045 33.8632C57.9219 33.7404 58.5588 33.6595 59.1892 33.6498C59.826 33.6369 60.4694 33.7145 61.0965 33.8276C61.5814 33.9117 62.0534 34.0475 62.5125 34.2317C63.1234 34.4742 63.7183 34.7425 64.2678 35.1078C65.4672 35.9031 66.5178 36.944 67.2064 38.2177C67.9144 39.5302 68.2538 40.9623 68.3541 42.4397C68.3541 42.4462 68.3541 42.4526 68.3541 42.4591C68.4478 43.8007 68.2797 45.1843 67.9855 46.5033Z" fill="#2C3639" fill-opacity="0.26"/>
<path d="M89.2121 46.5033C88.9244 47.8061 88.4524 49.0701 87.8705 50.2727C87.6636 50.6994 87.2078 50.9774 86.7713 51.1197C86.2994 51.2716 85.7789 51.1585 85.3522 50.9354C84.9545 50.7253 84.6248 50.2598 84.5052 49.833C84.3694 49.3352 84.4729 48.8664 84.6927 48.4171C84.767 48.2587 84.8414 48.1035 84.9093 47.9451C84.9093 47.9419 84.9125 47.9386 84.9125 47.9386C85.3425 46.8654 85.6593 45.7436 85.8371 44.6024V44.5992C85.9211 43.8848 85.947 43.1671 85.8953 42.4494C85.8888 42.3169 85.8759 42.1843 85.8629 42.0518C85.7724 41.499 85.6334 40.9559 85.433 40.4322C85.2617 40.0604 85.058 39.7048 84.8188 39.3718C84.5343 39.0356 84.2175 38.7253 83.8813 38.4473C83.878 38.444 83.8748 38.444 83.8748 38.444C83.4933 38.1692 83.0892 37.9332 82.6593 37.7361C82.6593 37.7361 82.6528 37.736 82.6528 37.7328C82.2132 37.5679 81.7573 37.4419 81.2918 37.3643H81.2886C80.7746 37.3158 80.2573 37.3158 79.7433 37.3675C79.7401 37.3675 79.7336 37.3675 79.7304 37.3707C79.1776 37.4645 78.6345 37.6164 78.1108 37.8169C78.1076 37.8169 78.1043 37.8201 78.1011 37.8233C77.5548 38.069 77.0375 38.3697 76.5558 38.722C76.1162 39.0809 75.7089 39.485 75.35 39.9246C75.35 39.9246 75.35 39.9246 75.3468 39.9279C75.0461 40.3481 74.7843 40.7942 74.5709 41.2598C74.5709 41.2598 74.5677 41.263 74.5709 41.263C74.4222 41.6542 74.3091 42.0518 74.225 42.4591H70.5332C70.5526 42.2587 70.5817 42.0615 70.6108 41.8611C70.6787 41.3697 70.8015 40.8912 70.9664 40.4257C71.4028 39.2102 72.03 38.1498 72.8705 37.1703C73.5882 36.3363 74.4804 35.6186 75.4276 35.0658C76.378 34.5098 77.4481 34.0766 78.5343 33.8632C79.1517 33.7404 79.7886 33.6595 80.4157 33.6498C81.0558 33.6369 81.6959 33.7145 82.3231 33.8276C82.8048 33.9117 83.28 34.0475 83.7358 34.2317C84.3468 34.4742 84.9448 34.7425 85.4912 35.1078C86.6905 35.9031 87.7444 36.944 88.433 38.2177C89.141 39.5302 89.4804 40.9623 89.5806 42.4397C89.5806 42.4462 89.5806 42.4526 89.5806 42.4591C89.6711 43.8104 89.503 45.194 89.2089 46.513L89.2121 46.5033Z" fill="#2C3639" fill-opacity="0.26"/>
<path d="M110.441 46.5033C110.154 47.8061 109.682 49.0701 109.1 50.2727C108.893 50.6994 108.437 50.9774 108.001 51.1197C107.529 51.2716 107.008 51.1585 106.581 50.9354C106.184 50.7253 105.854 50.2598 105.738 49.833C105.602 49.3352 105.705 48.8664 105.925 48.4171C105.999 48.2587 106.074 48.1035 106.142 47.9451C106.142 47.9419 106.145 47.9386 106.145 47.9386C106.575 46.8654 106.892 45.7436 107.07 44.6024V44.5992C107.154 43.8848 107.176 43.1671 107.128 42.4494C107.121 42.3169 107.108 42.1843 107.095 42.0518C107.008 41.499 106.869 40.9559 106.665 40.4322C106.494 40.0604 106.287 39.7048 106.051 39.3718C105.767 39.0356 105.45 38.7253 105.114 38.4473C105.11 38.444 105.107 38.444 105.107 38.444C104.726 38.1692 104.322 37.9332 103.892 37.7361C103.892 37.7361 103.888 37.736 103.888 37.7328C103.449 37.5679 102.993 37.4419 102.527 37.3643H102.521C102.007 37.3158 101.493 37.3158 100.979 37.3675C100.973 37.3675 100.973 37.3675 100.966 37.3707C100.413 37.4645 99.8702 37.6164 99.3464 37.8169C99.3432 37.8169 99.34 37.8201 99.3335 37.8233C98.7904 38.069 98.2699 38.3697 97.7883 38.722C97.3486 39.0809 96.9445 39.485 96.5824 39.9246C96.5824 39.9246 96.5824 39.9246 96.5792 39.9279C96.2786 40.3481 96.0167 40.7942 95.8033 41.2598C95.8033 41.2598 95.8001 41.263 95.8033 41.263C95.6579 41.6542 95.5415 42.0518 95.4574 42.4591H91.7656C91.7883 42.2587 91.8141 42.0615 91.8432 41.8611C91.9111 41.3697 92.0307 40.8912 92.1988 40.4257C92.6352 39.2102 93.2656 38.1498 94.1029 37.1703C94.8206 36.3363 95.7128 35.6186 96.66 35.0658C97.6137 34.5098 98.6837 34.0766 99.7667 33.8632C100.384 33.7404 101.021 33.6595 101.648 33.6498C102.288 33.6369 102.932 33.7145 103.555 33.8276C104.04 33.9117 104.516 34.0475 104.968 34.2317C105.579 34.4742 106.174 34.7425 106.724 35.1078C107.923 35.9031 108.977 36.944 109.665 38.2177C110.373 39.5302 110.713 40.9623 110.813 42.4397C110.813 42.4462 110.813 42.4526 110.813 42.4591C110.904 43.8104 110.739 45.194 110.445 46.513L110.441 46.5033Z" fill="#2C3639" fill-opacity="0.26"/>
<path opacity="0.5" d="M35.1052 119.007H7.97266L17.3638 56.7861H22.4425L31.4457 101.036C26.6871 98.7894 21.9349 98.7894 20.4511 100.981C20.3832 101.085 20.3153 101.191 20.2636 101.304L18.2108 105.526C16.9694 108.077 20.0599 112.137 25.1127 114.594C28.672 116.327 32.2571 116.802 34.4974 116.033L35.1052 119.007Z" fill="#2C3639" fill-opacity="0.26"/>
<path opacity="0.75" d="M22.4459 56.7868H17.3672L19.5299 42.4463L22.4459 56.7868Z" fill="#2C3639" fill-opacity="0.26"/>
<path d="M35.4996 119.33H7.59766L17.0858 56.4629H22.7076L22.7625 56.7215L31.8951 101.605L31.3099 101.327C26.7614 99.1806 22.1127 99.1062 20.7227 101.162C20.6548 101.262 20.5998 101.356 20.5578 101.447L18.505 105.665C17.3444 108.051 20.3735 111.924 25.255 114.3C28.6461 115.949 32.1472 116.495 34.3972 115.726L34.7464 115.606L35.4996 119.33ZM8.35089 118.684H34.7108L34.2582 116.447C31.8563 117.106 28.3455 116.524 24.977 114.885C19.6849 112.312 16.588 108.139 17.9263 105.387L19.9791 101.165C20.0373 101.049 20.1052 100.929 20.1892 100.803C21.7151 98.5469 26.2959 98.4338 31.0061 100.483L22.1839 57.1094H17.6451L8.35089 118.684Z" fill="#2C3639" fill-opacity="0.26"/>
<path d="M22.8415 57.107H16.9902L19.1562 42.7536C19.182 42.5693 19.3405 42.4303 19.528 42.4238C19.7187 42.4238 19.8803 42.5499 19.9191 42.7342L22.8415 57.107ZM17.7435 56.4605H22.0527L19.5797 44.2988L17.7435 56.4605Z" fill="#2C3639" fill-opacity="0.26"/>
<g opacity="0.5">
<path d="M51.8895 77.1986H41.5479C40.9467 77.1986 40.3324 76.7104 40.1708 76.1124L37.4003 65.7708C37.2387 65.1695 37.5943 64.6846 38.1956 64.6846H48.5404C49.1385 64.6846 49.7559 65.1695 49.9176 65.7708L52.688 76.1124C52.8464 76.7104 52.4876 77.1986 51.8895 77.1986Z" fill="#2C3639" fill-opacity="0.26"/>
<path d="M72.3114 77.1976H61.9698C61.3685 77.1976 60.7543 76.7095 60.5927 76.1114L57.8222 65.7698C57.6606 65.1685 58.0162 64.6836 58.6174 64.6836H68.9623C69.5603 64.6836 70.1778 65.1685 70.3394 65.7698L73.1099 76.1114C73.2683 76.7095 72.9127 77.1976 72.3114 77.1976Z" fill="#2C3639" fill-opacity="0.26"/>
<path d="M92.735 77.1976H82.3934C81.7921 77.1976 81.1779 76.7095 81.0163 76.1114L78.2458 65.7698C78.0842 65.1685 78.443 64.6836 79.0411 64.6836H89.3859C89.9839 64.6836 90.6014 65.1685 90.763 65.7698L93.4721 75.8689L93.5368 76.1146C93.6919 76.7095 93.3363 77.1976 92.735 77.1976Z" fill="#2C3639" fill-opacity="0.26"/>
<path d="M111.296 66.2001C107.217 66.4781 103.635 67.8132 100.758 69.9307C100.467 70.0632 100.176 70.2022 99.8912 70.3477L98.6659 65.7669C98.5043 65.1688 98.8599 64.6807 99.4612 64.6807H109.803C110.401 64.6807 111.018 65.1688 111.18 65.7669L111.296 66.2001Z" fill="#2C3639" fill-opacity="0.26"/>
<path d="M58.2548 100.949H47.9132C47.3119 100.949 46.6977 100.464 46.536 99.8624L43.7656 89.5208C43.6039 88.9227 43.9595 88.4346 44.5608 88.4346H54.9056C55.5037 88.4346 56.1212 88.9227 56.2828 89.5208L59.0533 99.8624C59.2117 100.464 58.8528 100.949 58.2548 100.949Z" fill="#2C3639" fill-opacity="0.26"/>
<path d="M78.676 100.949H68.3312C67.7331 100.949 67.1156 100.464 66.954 99.8624L64.1835 89.5208C64.0219 88.9227 64.3775 88.4346 64.9788 88.4346H75.3204C75.9184 88.4346 76.5359 88.9227 76.6975 89.5208L79.468 99.8624C79.6329 100.464 79.2773 100.949 78.676 100.949Z" fill="#2C3639" fill-opacity="0.26"/>
<path d="M93.8492 100.949H88.7576C88.1563 100.949 87.5421 100.464 87.3804 99.8624L84.6099 89.5208C84.4515 88.9227 84.8071 88.4346 85.4052 88.4346H89.9214C89.9731 89.5822 90.1153 90.7589 90.3449 91.9518C90.9655 95.1328 92.1778 98.1716 93.8492 100.949Z" fill="#2C3639" fill-opacity="0.26"/>
</g>
<path opacity="0.75" d="M130.968 112.005C127.72 114.398 123.562 115.788 118.813 115.788C105.646 115.788 92.9028 105.113 90.3424 91.9493C88.4157 82.0247 92.8252 73.5129 100.755 69.9277C94.9944 74.1691 92.072 81.5657 93.7077 89.9805C96.2681 103.148 109.015 113.819 122.182 113.819C125.421 113.822 128.382 113.176 130.968 112.005Z" fill="#2C3639" fill-opacity="0.26"/>
<path d="M118.815 116.114C105.525 116.114 92.6072 105.304 90.0275 92.0139C89.0803 87.1421 89.6105 82.4417 91.5663 78.4234C93.4736 74.4924 96.6094 71.4536 100.628 69.6368L103.421 68.376L100.954 70.1928C95.0609 74.5311 92.4747 81.9083 94.0329 89.9223C96.5609 102.924 109.191 113.499 122.187 113.499C125.307 113.499 128.216 112.898 130.841 111.714L133.637 110.454L131.168 112.27C127.744 114.782 123.477 116.114 118.815 116.114ZM98.2678 71.6734C91.9833 75.8436 89.0286 83.473 90.6643 91.8911C93.1924 104.89 105.823 115.468 118.818 115.468C122.19 115.468 125.349 114.753 128.106 113.379C126.234 113.89 124.256 114.145 122.19 114.145C108.897 114.145 95.9822 103.335 93.4025 90.0452C92.0059 82.904 93.8195 76.2477 98.2678 71.6734Z" fill="#2C3639" fill-opacity="0.26"/>
<path opacity="0.5" d="M141.39 89.9839C138.83 76.8201 126.083 66.1455 112.916 66.1455C108.164 66.1455 104.01 67.5356 100.758 69.9311C94.9971 74.1724 92.0747 81.569 93.7105 89.9839C96.2709 103.151 109.018 113.822 122.185 113.822C125.424 113.822 128.385 113.176 130.971 112.009C138.904 108.424 143.317 99.9117 141.39 89.9839ZM103.758 78.4397C104.379 77.6671 105.623 77.6671 106.545 78.4397L110.912 82.0959C111.83 82.8653 112.073 84.1099 111.455 84.8793C111.145 85.2673 110.679 85.458 110.175 85.458C109.674 85.458 109.128 85.264 108.672 84.8793L104.301 81.2231C103.383 80.4537 103.14 79.2091 103.758 78.4397ZM101.22 89.9839C101.01 88.8977 101.721 88.0151 102.807 88.0151H107.977C109.063 88.0151 110.117 88.8977 110.327 89.9839C110.434 90.527 110.311 91.0216 110.02 91.374C109.732 91.7328 109.283 91.9526 108.74 91.9526H103.57C102.484 91.9526 101.43 91.0701 101.22 89.9839ZM113.98 97.8718L111.035 101.528C110.414 102.297 109.17 102.297 108.248 101.528C107.33 100.759 107.088 99.514 107.708 98.7446L110.657 95.0852C111.277 94.3158 112.522 94.3158 113.44 95.0852C113.899 95.4699 114.19 95.9742 114.287 96.4752C114.384 96.9828 114.29 97.4903 113.98 97.8718ZM116.149 82.7651C115.063 82.7651 114.009 81.8826 113.799 80.7964L112.793 75.6207C112.583 74.5345 113.291 73.652 114.381 73.652C114.924 73.652 115.457 73.8718 115.884 74.2274C116.311 74.583 116.624 75.0776 116.731 75.6207L117.736 80.7964C117.946 81.8858 117.235 82.7651 116.149 82.7651ZM120.727 106.313C119.64 106.313 118.587 105.43 118.376 104.344L117.371 99.1681C117.161 98.0819 117.872 97.1994 118.958 97.1994C119.501 97.1994 120.038 97.4192 120.465 97.778C120.888 98.1369 121.205 98.625 121.312 99.1681L122.317 104.344C122.524 105.43 121.813 106.313 120.727 106.313ZM121.664 84.8793C120.746 84.1099 120.504 82.8653 121.124 82.0959L124.069 78.4397C124.693 77.6671 125.935 77.6671 126.856 78.4397C127.315 78.8212 127.603 79.3255 127.703 79.8298C127.8 80.3341 127.706 80.8384 127.396 81.2231L124.451 84.8793C123.83 85.6487 122.582 85.6487 121.664 84.8793ZM131.343 101.528C131.033 101.916 130.567 102.107 130.063 102.107C129.559 102.107 129.019 101.913 128.56 101.528L124.192 97.8718C123.274 97.1024 123.032 95.8578 123.649 95.0884C124.27 94.319 125.514 94.319 126.432 95.0884L130.803 98.7479C131.718 99.5173 131.961 100.762 131.343 101.528ZM133.574 91.374C133.289 91.7328 132.84 91.9526 132.297 91.9526H127.124C126.038 91.9526 124.984 91.0701 124.774 89.9839C124.564 88.8977 125.272 88.0151 126.358 88.0151H131.534C132.62 88.0151 133.674 88.8977 133.884 89.9839C133.987 90.527 133.865 91.0216 133.574 91.374Z" fill="#2C3639" fill-opacity="0.26"/>
<path d="M122.183 114.145C108.89 114.145 95.9748 103.335 93.395 90.045C91.7884 81.7789 94.4683 74.1625 100.565 69.6722C103.982 67.1539 108.256 65.8252 112.914 65.8252C126.208 65.8252 139.122 76.6355 141.702 89.9254C142.649 94.8004 142.119 99.5008 140.167 103.519C138.259 107.45 135.12 110.489 131.102 112.306C128.396 113.528 125.393 114.145 122.183 114.145ZM112.918 66.4685C108.398 66.4685 104.257 67.7552 100.953 70.1894C95.0599 74.5278 92.4737 81.9049 94.0319 89.9189C96.5599 102.918 109.19 113.495 122.186 113.495C125.306 113.495 128.215 112.894 130.84 111.711C138.906 108.068 142.924 99.5623 141.072 90.045C138.544 77.0461 125.913 66.4685 112.918 66.4685Z" fill="#2C3639" fill-opacity="0.26"/>
<path d="M110.179 85.7777C109.574 85.7777 108.966 85.5449 108.465 85.1247L104.094 81.4684C103.044 80.5859 102.782 79.1376 103.509 78.2324C103.826 77.8413 104.292 77.5956 104.825 77.5439C105.488 77.4824 106.193 77.7152 106.755 78.1872L111.122 81.8434C112.173 82.7227 112.435 84.1743 111.708 85.0762C111.342 85.532 110.799 85.7777 110.179 85.7777ZM105.045 78.1839C104.99 78.1839 104.938 78.1872 104.886 78.1904C104.524 78.226 104.221 78.3811 104.014 78.643C103.506 79.2734 103.726 80.3176 104.511 80.9738L108.882 84.6301C109.267 84.9566 109.726 85.1311 110.179 85.1311C110.605 85.1311 110.967 84.9695 111.207 84.6753C111.714 84.0449 111.491 82.9975 110.709 82.3413L106.338 78.685C105.953 78.3617 105.491 78.1839 105.045 78.1839Z" fill="#2C3639" fill-opacity="0.26"/>
<path d="M108.744 92.2722H103.575C102.34 92.2722 101.144 91.2701 100.905 90.0449C100.782 89.4145 100.921 88.8229 101.29 88.3735C101.652 87.9339 102.192 87.6914 102.812 87.6914H107.981C109.213 87.6914 110.409 88.6936 110.652 89.9188C110.775 90.5427 110.639 91.1311 110.28 91.574C109.915 92.0265 109.372 92.2722 108.744 92.2722ZM102.809 88.338C102.386 88.338 102.024 88.4964 101.788 88.7841C101.542 89.0815 101.455 89.4856 101.539 89.9188C101.723 90.8595 102.635 91.6257 103.575 91.6257H108.744C109.171 91.6257 109.536 91.464 109.772 91.1699C110.012 90.8724 110.096 90.4748 110.012 90.0416C109.827 89.1009 108.916 88.3347 107.978 88.3347H102.809V88.338Z" fill="#2C3639" fill-opacity="0.26"/>
<path d="M109.751 102.43C109.153 102.43 108.542 102.2 108.037 101.78C106.987 100.901 106.722 99.4491 107.452 98.5439L110.4 94.8844C110.714 94.4933 111.183 94.2508 111.71 94.1991C112.372 94.1344 113.077 94.3672 113.64 94.8392C114.141 95.2594 114.483 95.8187 114.597 96.4168C114.719 97.0407 114.584 97.629 114.225 98.0752L111.28 101.731C110.966 102.123 110.501 102.365 109.967 102.417C109.899 102.426 109.825 102.433 109.751 102.43ZM111.933 94.8359C111.878 94.8359 111.826 94.8392 111.774 94.8424C111.412 94.878 111.112 95.0331 110.902 95.2918L107.953 98.9512C107.446 99.5816 107.666 100.629 108.451 101.282C108.884 101.644 109.414 101.822 109.909 101.773C110.271 101.738 110.572 101.583 110.782 101.324L113.73 97.6678C113.969 97.3737 114.057 96.9728 113.969 96.5396C113.882 96.087 113.62 95.6571 113.229 95.3338C112.841 95.0105 112.379 94.8327 111.933 94.8359Z" fill="#2C3639" fill-opacity="0.26"/>
<path d="M116.148 83.0885C114.916 83.0885 113.72 82.0863 113.481 80.8579L112.475 75.6855C112.352 75.0551 112.491 74.4635 112.86 74.0141C113.222 73.5745 113.762 73.332 114.379 73.332C114.997 73.332 115.588 73.5616 116.09 73.9818C116.591 74.4021 116.93 74.9646 117.046 75.5594L118.052 80.735C118.175 81.3654 118.036 81.9603 117.664 82.4096C117.302 82.846 116.762 83.0885 116.148 83.0885ZM114.376 73.9818C113.956 73.9818 113.594 74.1402 113.358 74.4279C113.112 74.7254 113.025 75.1294 113.109 75.5659L114.114 80.7415C114.299 81.6822 115.21 82.4484 116.148 82.4484C116.568 82.4484 116.93 82.29 117.166 82.0023C117.412 81.7049 117.502 81.3008 117.415 80.8644L116.41 75.6919C116.322 75.2394 116.06 74.8094 115.672 74.4829C115.288 74.1564 114.826 73.9818 114.376 73.9818Z" fill="#2C3639" fill-opacity="0.26"/>
<path d="M120.725 106.635C119.493 106.635 118.297 105.633 118.055 104.405L117.05 99.2324C116.927 98.602 117.066 98.0104 117.434 97.561C117.796 97.1214 118.336 96.8789 118.954 96.8789C119.571 96.8789 120.163 97.1117 120.667 97.5319C121.168 97.9522 121.507 98.5114 121.624 99.1095L122.629 104.285C122.752 104.916 122.613 105.51 122.241 105.956C121.879 106.393 121.339 106.635 120.725 106.635ZM118.954 97.5255C118.533 97.5255 118.171 97.6839 117.935 97.9716C117.69 98.269 117.602 98.6731 117.686 99.1095L118.692 104.285C118.873 105.226 119.788 105.992 120.725 105.992C121.145 105.992 121.507 105.834 121.743 105.546C121.989 105.249 122.08 104.844 121.992 104.408L120.987 99.2324C120.9 98.7798 120.638 98.353 120.25 98.0265C119.865 97.7033 119.403 97.5255 118.954 97.5255Z" fill="#2C3639" fill-opacity="0.26"/>
<path d="M123.165 85.7775C122.567 85.7775 121.956 85.548 121.452 85.1245C120.401 84.2452 120.139 82.7937 120.867 81.8885L123.812 78.2323C124.129 77.8411 124.594 77.5954 125.128 77.5437C125.79 77.4791 126.495 77.7151 127.061 78.187C127.559 78.6041 127.901 79.1633 128.018 79.7646C128.137 80.3885 128.005 80.9737 127.646 81.4198L124.701 85.076C124.387 85.4672 123.918 85.7129 123.388 85.7614C123.317 85.7743 123.243 85.7775 123.165 85.7775ZM125.351 78.1838C125.299 78.1838 125.247 78.187 125.195 78.1903C124.833 78.2258 124.533 78.381 124.323 78.6428L121.378 82.2991C120.87 82.9295 121.093 83.9769 121.875 84.6299C122.309 84.992 122.839 85.173 123.33 85.1245C123.692 85.089 123.993 84.9338 124.203 84.6752L127.148 81.0157C127.387 80.7215 127.475 80.3207 127.387 79.8875C127.3 79.4349 127.038 79.0049 126.653 78.6816C126.259 78.3584 125.793 78.1806 125.351 78.1838Z" fill="#2C3639" fill-opacity="0.26"/>
<path d="M130.059 102.43C129.458 102.43 128.85 102.197 128.349 101.777L123.978 98.1204C122.931 97.2411 122.666 95.7896 123.393 94.8844C123.71 94.4933 124.176 94.2508 124.706 94.1991C125.368 94.1344 126.073 94.3672 126.639 94.8392L131.006 98.4987C132.057 99.3812 132.319 100.829 131.592 101.735C131.226 102.184 130.683 102.433 130.059 102.43ZM124.926 94.8327C124.871 94.8327 124.819 94.836 124.767 94.8392C124.405 94.8747 124.104 95.0299 123.894 95.2885C123.387 95.9189 123.61 96.9696 124.392 97.6226L128.76 101.279C129.148 101.602 129.607 101.78 130.059 101.78C130.486 101.78 130.851 101.618 131.087 101.324C131.598 100.694 131.375 99.6495 130.589 98.99L126.219 95.3338C125.834 95.0105 125.372 94.8327 124.926 94.8327Z" fill="#2C3639" fill-opacity="0.26"/>
<path d="M132.291 92.2722H127.118C125.883 92.2722 124.69 91.2701 124.448 90.0449C124.325 89.4145 124.464 88.8229 124.833 88.3735C125.195 87.9339 125.735 87.6914 126.352 87.6914H131.528C132.759 87.6914 133.955 88.6936 134.198 89.9188C134.318 90.5427 134.185 91.1278 133.826 91.574C133.461 92.0298 132.918 92.2755 132.291 92.2722ZM126.352 88.338C125.932 88.338 125.57 88.4964 125.334 88.7841C125.088 89.0815 125.001 89.4856 125.085 89.922C125.269 90.8627 126.181 91.6289 127.118 91.6289H132.291C132.717 91.6289 133.083 91.4673 133.319 91.1731C133.558 90.8789 133.642 90.478 133.561 90.0449C133.377 89.1041 132.465 88.3412 131.528 88.3412L126.352 88.338Z" fill="#2C3639" fill-opacity="0.26"/>
<path d="M108.744 91.9492H103.575C102.488 91.9492 101.435 91.0699 101.224 89.9805C101.014 88.8943 101.722 88.0117 102.812 88.0117H107.981C109.067 88.0117 110.121 88.8943 110.331 89.9805C110.438 90.5236 110.315 91.0182 110.024 91.3738C109.736 91.7294 109.287 91.9492 108.744 91.9492Z" fill="#2C3639" fill-opacity="0.26"/>
<path d="M103.762 78.4364C104.382 77.667 105.627 77.667 106.548 78.4364L110.916 82.0927C111.834 82.8621 112.076 84.1067 111.459 84.8761C111.148 85.2608 110.683 85.4547 110.179 85.4547C109.677 85.4547 109.131 85.2608 108.675 84.8761L104.305 81.2198C103.387 80.4504 103.144 79.2058 103.762 78.4364Z" fill="#2C3639" fill-opacity="0.26"/>
<path d="M114.287 96.4782C114.384 96.9825 114.29 97.4868 113.98 97.8715L111.035 101.528C110.414 102.297 109.169 102.297 108.248 101.528C107.33 100.758 107.087 99.5137 107.705 98.7443L110.653 95.0849C111.274 94.3155 112.518 94.3155 113.437 95.0849C113.896 95.4728 114.19 95.9771 114.287 96.4782Z" fill="#2C3639" fill-opacity="0.26"/>
<path d="M116.148 82.7645C115.062 82.7645 114.008 81.882 113.798 80.7958L112.793 75.6201C112.583 74.5339 113.291 73.6514 114.38 73.6514C114.923 73.6514 115.457 73.8712 115.883 74.2268C116.31 74.5824 116.624 75.077 116.73 75.6201L117.736 80.7958C117.946 81.8852 117.235 82.7645 116.148 82.7645Z" fill="#2C3639" fill-opacity="0.26"/>
<path d="M122.308 104.344C122.518 105.43 121.81 106.312 120.721 106.312C119.634 106.312 118.58 105.43 118.37 104.344L117.365 99.168C117.155 98.0818 117.866 97.1992 118.952 97.1992C119.495 97.1992 120.032 97.419 120.455 97.7779C120.882 98.1367 121.196 98.6249 121.302 99.168L122.308 104.344Z" fill="#2C3639" fill-opacity="0.26"/>
<path d="M121.662 84.8795C120.744 84.1101 120.501 82.8655 121.119 82.0961L124.067 78.4398C124.688 77.6672 125.933 77.6672 126.854 78.4398C127.313 78.8213 127.604 79.3256 127.701 79.8299C127.798 80.3342 127.704 80.8385 127.394 81.2232L124.449 84.8795C123.828 85.6489 122.58 85.6489 121.662 84.8795Z" fill="#2C3639" fill-opacity="0.26"/>
<path d="M131.343 101.527C131.032 101.915 130.567 102.106 130.059 102.106C129.552 102.106 129.015 101.912 128.556 101.527L124.189 97.8712C123.27 97.1018 123.028 95.8572 123.649 95.0878C124.269 94.3184 125.514 94.3184 126.432 95.0878L130.8 98.7473C131.718 99.5167 131.96 100.761 131.343 101.527Z" fill="#2C3639" fill-opacity="0.26"/>
<path d="M133.572 91.3735C133.284 91.7323 132.838 91.9521 132.292 91.9521H127.119C126.033 91.9521 124.979 91.0696 124.769 89.9834C124.559 88.8972 125.27 88.0146 126.353 88.0146H131.529C132.615 88.0146 133.669 88.8972 133.879 89.9834C133.986 90.5265 133.86 91.0211 133.572 91.3735Z" fill="#2C3639" fill-opacity="0.26"/>
<path opacity="0.5" d="M38.5203 110.318L36.516 114.466C35.3037 116.971 30.2412 117.033 25.2046 114.598C20.1712 112.167 17.0677 108.165 18.28 105.656L20.2843 101.509C19.0753 104.014 22.1755 108.02 27.2089 110.451C32.2423 112.882 37.3113 112.823 38.5203 110.318Z" fill="#2C3639" fill-opacity="0.26"/>
<path opacity="0.25" d="M38.6553 109.975C39.4506 107.46 36.4053 103.701 31.595 101.376C26.7846 99.0518 21.9484 99.0066 20.471 101.192C20.3999 101.295 20.3385 101.399 20.2868 101.512C19.0777 104.017 22.1779 108.023 27.2113 110.454C32.2448 112.885 37.3105 112.827 38.5228 110.321C38.5745 110.208 38.6198 110.095 38.6553 109.975ZM27.8999 109.022C24.0077 107.14 21.5249 104.227 22.3525 102.511C22.3881 102.433 22.4333 102.362 22.4818 102.294C23.5228 100.814 27.1823 101.014 30.9032 102.815C34.6208 104.612 37.0551 107.354 36.5443 109.09C36.5217 109.17 36.4894 109.251 36.4506 109.329C35.6198 111.036 31.7922 110.903 27.8999 109.022Z" fill="#2C3639" fill-opacity="0.26"/>
<path d="M32.1735 116.725C30.1045 116.725 27.5992 116.117 25.0614 114.892C19.7888 112.344 16.6789 108.226 17.9882 105.517L19.9925 101.369L20.5744 101.65C19.4429 103.991 22.4817 107.809 27.347 110.162C32.2155 112.512 37.0938 112.522 38.2252 110.178L38.8071 110.46L36.8028 114.607C36.1239 116.014 34.4041 116.725 32.1735 116.725ZM19.7532 103.354L18.5733 105.798C17.4418 108.139 20.4806 111.956 25.3459 114.31C30.2145 116.66 35.0927 116.67 36.2242 114.326L37.4041 111.882C35.1961 113.088 31.1681 112.723 27.069 110.741C22.9698 108.759 20.1767 105.83 19.7532 103.354Z" fill="#2C3639" fill-opacity="0.26"/>
<path d="M34.1776 112.577C32.1086 112.577 29.6033 111.969 27.0655 110.744C21.7897 108.197 18.683 104.078 19.989 101.372C20.0472 101.25 20.1183 101.13 20.1992 101.014C21.7961 98.6537 26.752 98.6828 31.7304 101.088C36.7089 103.493 39.8155 107.36 38.9589 110.078C38.9168 110.214 38.8651 110.343 38.8069 110.466C38.1313 111.869 36.4114 112.577 34.1776 112.577ZM24.6054 99.9048C22.8112 99.9048 21.4017 100.39 20.739 101.372C20.6776 101.466 20.6227 101.56 20.5774 101.65C19.4459 103.991 22.4847 107.809 27.35 110.162C32.2186 112.513 37.0968 112.522 38.2283 110.178C38.2735 110.085 38.3155 109.981 38.3479 109.878C39.0979 107.502 36.072 103.894 31.4556 101.667C29.0311 100.496 26.5839 99.9048 24.6054 99.9048Z" fill="#2C3639" fill-opacity="0.26"/>
<path d="M33.5824 110.848C31.9466 110.848 29.8744 110.334 27.7602 109.309C25.8399 108.378 24.1847 107.172 23.1082 105.911C21.9735 104.579 21.6018 103.318 22.0608 102.368C22.1029 102.284 22.1513 102.197 22.2128 102.106C23.3669 100.464 27.1621 100.645 31.0414 102.517C34.9207 104.392 37.4197 107.253 36.8507 109.173C36.8184 109.283 36.7828 109.373 36.7408 109.461C36.2947 110.385 35.1309 110.844 33.5824 110.848ZM28.0414 108.73C31.7041 110.498 35.4218 110.705 36.1589 109.179C36.1847 109.124 36.2106 109.063 36.23 108.985C36.6923 107.421 34.2354 104.78 30.7569 103.099C27.2785 101.418 23.6837 101.136 22.7429 102.475C22.7041 102.533 22.6686 102.591 22.6395 102.649C22.3033 103.344 22.6524 104.382 23.5996 105.491C24.6212 106.687 26.1955 107.838 28.0414 108.73Z" fill="#2C3639" fill-opacity="0.26"/>
<path opacity="0.5" d="M36.4505 109.319C35.6197 111.032 31.7953 110.9 27.8999 109.018C24.0076 107.137 21.5249 104.224 22.3525 102.507C22.388 102.43 22.4333 102.359 22.4818 102.291C23.5227 100.81 27.1822 101.011 30.9031 102.811C34.6208 104.609 37.055 107.35 36.5443 109.086C36.5184 109.164 36.4861 109.244 36.4505 109.319Z" fill="#2C3639" fill-opacity="0.26"/>
<path opacity="0.5" d="M96.0281 120.349L96.471 127.574C96.7393 131.941 89.9085 135.911 81.2124 136.445C72.5162 136.978 65.2522 133.875 64.9839 129.507L64.541 122.282C64.8093 126.646 72.0733 129.753 80.7662 129.219C89.4624 128.683 96.2964 124.713 96.0281 120.349Z" fill="#2C3639" fill-opacity="0.26"/>
<path opacity="0.25" d="M95.9494 119.773C95.1089 115.716 88.1035 112.901 79.7985 113.411C71.4903 113.922 64.889 117.572 64.5496 121.7C64.5334 121.894 64.5302 122.088 64.5431 122.279C64.8115 126.643 72.0755 129.75 80.7684 129.216C89.4645 128.683 96.2953 124.713 96.027 120.349C96.0173 120.155 95.9882 119.961 95.9494 119.773ZM80.6132 126.721C73.8923 127.131 68.2931 125.046 68.1121 122.059C68.1024 121.923 68.1089 121.791 68.1186 121.658C68.403 118.829 73.527 116.295 79.9505 115.901C86.374 115.506 91.7694 117.394 92.3998 120.168C92.4257 120.297 92.4483 120.43 92.4548 120.565C92.639 123.553 87.3373 126.307 80.6132 126.721Z" fill="#2C3639" fill-opacity="0.26"/>
<path d="M79.2672 136.826C75.7403 136.826 72.4397 136.232 69.8114 135.107C66.6272 133.746 64.8006 131.761 64.6616 129.52L64.2188 122.295L64.8621 122.256C65.1175 126.436 72.2392 129.411 80.7446 128.89C89.2468 128.366 95.9547 124.542 95.7026 120.362L96.3459 120.323L96.7888 127.548C96.9246 129.789 95.3535 131.981 92.3599 133.72C89.4375 135.42 85.4838 136.5 81.2263 136.759C80.57 136.804 79.9138 136.826 79.2672 136.826ZM65.0075 124.6L65.3082 129.485C65.5474 133.345 71.6412 136.18 79.2672 136.18C79.9009 136.18 80.541 136.161 81.1907 136.118C89.6929 135.598 96.4009 131.77 96.1455 127.59L95.8448 122.706C95.1692 124.086 93.8341 125.386 91.917 126.498C88.9946 128.198 85.041 129.278 80.7834 129.537C76.5291 129.798 72.472 129.21 69.3621 127.881C67.3287 127.009 65.8448 125.884 65.0075 124.6Z" fill="#2C3639" fill-opacity="0.26"/>
<path d="M78.8223 129.597C75.2954 129.597 71.9948 129.003 69.3665 127.881C66.1823 126.52 64.3558 124.538 64.2167 122.298C64.2038 122.097 64.207 121.884 64.2264 121.671C64.3978 119.553 66.1047 117.507 69.0303 115.91C71.9107 114.336 75.7286 113.333 79.7792 113.084C83.8267 112.836 87.7415 113.366 90.7932 114.575C93.8902 115.803 95.8364 117.623 96.2663 119.702C96.3116 119.912 96.3374 120.119 96.3504 120.323C96.4861 122.563 94.915 124.755 91.9215 126.494C88.9991 128.194 85.0454 129.274 80.7879 129.533C80.1284 129.572 79.4721 129.594 78.8256 129.594L78.8223 129.597ZM81.7221 113.67C81.095 113.67 80.4614 113.689 79.8148 113.728C71.762 114.222 65.1963 117.733 64.8665 121.719C64.8536 121.903 64.8504 122.081 64.8601 122.253C65.1155 126.433 72.2372 129.407 80.7458 128.886C89.248 128.362 95.956 124.538 95.7006 120.358C95.6876 120.184 95.665 120.009 95.6295 119.828C94.8859 116.23 88.9441 113.67 81.7221 113.67Z" fill="#2C3639" fill-opacity="0.26"/>
<path d="M78.8882 127.095C72.7136 127.095 67.9679 125.02 67.7869 122.078C67.7772 121.939 67.7804 121.791 67.7934 121.629C68.1005 118.584 73.3181 115.984 79.9291 115.58C86.5401 115.176 92.039 117.119 92.7115 120.1C92.747 120.261 92.7664 120.407 92.7761 120.546C92.8731 122.127 91.6285 123.672 89.2718 124.894C86.9959 126.077 83.928 126.84 80.6339 127.044C80.0423 127.079 79.4571 127.095 78.8882 127.095ZM81.6393 116.175C81.0897 116.175 80.5337 116.191 79.9712 116.227C73.7772 116.608 68.7115 119.01 68.4399 121.694C68.4302 121.82 68.427 121.933 68.4334 122.043C68.6015 124.797 74.1716 126.795 80.5951 126.4C83.802 126.203 86.7793 125.466 88.9776 124.325C91.0918 123.226 92.2136 121.897 92.136 120.591C92.1296 120.481 92.1134 120.371 92.0875 120.242C91.5412 117.853 87.0962 116.175 81.6393 116.175Z" fill="#2C3639" fill-opacity="0.26"/>
<path opacity="0.5" d="M92.4585 120.565C92.6428 123.552 87.3378 126.307 80.6169 126.72C73.896 127.131 68.2969 125.046 68.1126 122.059C68.1061 121.923 68.1094 121.794 68.1223 121.661C68.4068 118.832 73.5307 116.298 79.9542 115.904C86.3777 115.509 91.7764 117.397 92.4036 120.171C92.4294 120.3 92.452 120.429 92.4585 120.565Z" fill="#2C3639" fill-opacity="0.26"/>
<path opacity="0.5" d="M139.629 51.8047L139.817 54.8499C139.93 56.6894 137.05 58.3607 133.387 58.587C129.724 58.8133 126.663 57.504 126.553 55.6646L126.365 52.6193C126.478 54.4588 129.54 55.768 133.203 55.5418C136.862 55.3187 139.742 53.6441 139.629 51.8047Z" fill="#2C3639" fill-opacity="0.26"/>
<path opacity="0.25" d="M139.594 51.5622C139.239 49.8521 136.291 48.6689 132.789 48.8823C129.288 49.0956 126.508 50.6344 126.363 52.3737C126.356 52.4545 126.356 52.5385 126.36 52.6193C126.473 54.4588 129.534 55.768 133.197 55.5418C136.86 55.3155 139.737 53.6441 139.624 51.8047C139.62 51.7271 139.607 51.6431 139.594 51.5622ZM133.132 54.4911C130.3 54.6657 127.944 53.7864 127.863 52.5288C127.86 52.4706 127.863 52.4157 127.866 52.3607C127.986 51.1711 130.145 50.101 132.851 49.9329C135.557 49.768 137.829 50.5633 138.094 51.7303C138.107 51.7853 138.117 51.8402 138.12 51.8952C138.201 53.156 135.964 54.3165 133.132 54.4911Z" fill="#2C3639" fill-opacity="0.26"/>
<path d="M132.566 58.9367C131.056 58.9367 129.637 58.6813 128.509 58.1964C127.099 57.5919 126.291 56.7029 126.227 55.6845L126.039 52.6393L126.686 52.6005C126.786 54.2298 129.757 55.4324 133.177 55.2223C136.597 55.0121 139.403 53.4572 139.303 51.8279L139.95 51.7891L140.137 54.8343C140.263 56.8807 137.305 58.6748 133.403 58.9141C133.119 58.927 132.841 58.9367 132.566 58.9367ZM126.779 54.1651L126.87 55.6457C126.915 56.4054 127.588 57.1005 128.761 57.6048C130.006 58.1382 131.641 58.3742 133.364 58.2675C136.785 58.0574 139.591 56.5024 139.491 54.8731L139.4 53.3925C138.382 54.705 136.048 55.6942 133.219 55.8688C130.387 56.0434 127.953 55.3419 126.779 54.1651Z" fill="#2C3639" fill-opacity="0.26"/>
<path d="M132.365 55.8906C128.867 55.8906 126.155 54.5361 126.039 52.6385C126.032 52.5415 126.035 52.4445 126.042 52.3475C126.2 50.4111 129.09 48.785 132.769 48.5587C136.445 48.3357 139.516 49.5964 139.91 51.4973C139.93 51.5943 139.946 51.6913 139.949 51.785C140.075 53.8314 137.117 55.6255 133.219 55.8648C132.928 55.8809 132.643 55.8874 132.365 55.8906ZM133.574 49.1794C133.319 49.1794 133.067 49.1859 132.805 49.202C129.559 49.4025 126.811 50.8346 126.682 52.3992C126.679 52.4671 126.676 52.5318 126.679 52.5964C126.779 54.2257 129.75 55.4251 133.173 55.215C136.594 55.0048 139.4 53.4499 139.299 51.8206C139.296 51.7559 139.287 51.6913 139.274 51.6234C138.983 50.2139 136.5 49.1794 133.574 49.1794Z" fill="#2C3639" fill-opacity="0.26"/>
<path d="M132.419 54.8374C131.275 54.8374 130.208 54.6693 129.352 54.3525C128.23 53.9354 127.586 53.2921 127.541 52.5518C127.538 52.4839 127.538 52.4128 127.544 52.3352C127.683 50.9613 129.956 49.791 132.833 49.6165C135.707 49.4387 138.109 50.3212 138.413 51.666C138.432 51.7469 138.442 51.8148 138.445 51.8859C138.536 53.3438 136.211 54.6337 133.153 54.8212C132.901 54.8277 132.659 54.8374 132.419 54.8374ZM133.583 50.2339C133.354 50.2339 133.114 50.2404 132.872 50.2566C130.095 50.4247 128.278 51.4979 128.188 52.3902C128.185 52.4322 128.185 52.471 128.185 52.5066C128.214 52.9753 128.718 53.4247 129.578 53.7415C130.531 54.0971 131.786 54.249 133.111 54.1682C135.943 53.9936 137.854 52.8428 137.795 51.9182C137.792 51.8826 137.789 51.8438 137.779 51.7986C137.602 51.0033 135.975 50.2372 133.583 50.2339Z" fill="#2C3639" fill-opacity="0.26"/>
<path opacity="0.25" d="M138.126 51.8983C138.204 53.1558 135.97 54.3196 133.138 54.4909C130.306 54.6655 127.949 53.7862 127.869 52.5287C127.865 52.4705 127.869 52.4155 127.872 52.3606C127.991 51.1709 130.151 50.1009 132.857 49.9328C135.562 49.7679 137.835 50.5631 138.1 51.7302C138.113 51.7851 138.123 51.8401 138.126 51.8983Z" fill="#2C3639" fill-opacity="0.26"/>
<path opacity="0.5" d="M35.1155 24.8405L33.2566 27.2554C32.1316 28.7133 28.8633 28.0829 25.9571 25.8426C23.0476 23.6056 21.6025 20.6056 22.7275 19.1444L24.5864 16.7295C23.4646 18.1875 24.9097 21.1875 27.8159 23.4278C30.7222 25.6681 33.9905 26.2985 35.1155 24.8405Z" fill="#2C3639" fill-opacity="0.26"/>
<path opacity="0.25" d="M35.2468 24.6334C36.1035 23.1107 34.6585 20.2788 31.8848 18.1388C29.1046 15.9987 25.9979 15.3295 24.7468 16.545C24.6886 16.6 24.6337 16.6614 24.5852 16.726C23.4634 18.184 24.9085 21.184 27.8147 23.4243C30.721 25.6646 33.9925 26.2982 35.1143 24.837C35.1628 24.7724 35.208 24.7045 35.2468 24.6334ZM28.4548 22.5903C26.208 20.8607 25.0055 18.6463 25.7781 17.6474C25.8104 17.6021 25.8492 17.5601 25.8912 17.5213C26.7673 16.7034 29.0917 17.3176 31.2414 18.9728C33.388 20.628 34.5777 22.7196 34.0087 23.7767C33.9828 23.8252 33.9537 23.8737 33.9182 23.9189C33.1488 24.9178 30.7016 24.323 28.4548 22.5903Z" fill="#2C3639" fill-opacity="0.26"/>
<path d="M31.2937 28.3638C30.9575 28.3638 30.5955 28.325 30.2075 28.2506C28.7787 27.9726 27.1978 27.2097 25.7528 26.0944C22.659 23.7086 21.214 20.5696 22.4651 18.9435L24.3239 16.5254L24.8379 16.9198C24.3724 17.5243 24.4209 18.4877 24.9769 19.6385C25.5653 20.8605 26.6418 22.1116 28.0093 23.1655C30.7248 25.2571 33.8606 25.9327 34.8562 24.6364L35.367 25.0308L33.5082 27.4456C33.0459 28.0502 32.2765 28.3638 31.2937 28.3638ZM23.8843 18.1676L22.9791 19.3444C21.9802 20.6407 23.4317 23.4985 26.1504 25.5868C27.5179 26.6407 29.0017 27.3616 30.3336 27.6202C31.5879 27.8627 32.5319 27.6622 32.9974 27.0577L33.9026 25.881C32.2733 26.201 29.8616 25.4122 27.6181 23.6827C26.1731 22.5674 25.0287 21.2355 24.3983 19.9263C24.0912 19.2991 23.9231 18.7043 23.8843 18.1676Z" fill="#2C3639" fill-opacity="0.26"/>
<path d="M33.1431 25.9496C31.5752 25.9496 29.5353 25.1608 27.6151 23.6835C26.17 22.5714 25.0256 21.2363 24.3952 19.927C23.7293 18.5466 23.7034 17.3408 24.3273 16.5326C24.3855 16.4582 24.4502 16.3839 24.5213 16.316C25.9114 14.9615 29.1636 15.6371 32.0827 17.8839C35.0019 20.1307 36.4825 23.1016 35.5321 24.7923C35.4836 24.8763 35.4286 24.9572 35.3705 25.0348C34.8952 25.6522 34.1064 25.9496 33.1431 25.9496ZM26.5289 16.2707C25.8694 16.2707 25.3263 16.4356 24.9707 16.7815C24.9222 16.83 24.8769 16.8785 24.8381 16.9302C24.3726 17.5348 24.4211 18.5013 24.9771 19.649C25.5655 20.871 26.642 22.122 28.0095 23.1727C30.725 25.2643 33.8608 25.9399 34.8564 24.6436C34.8952 24.5919 34.934 24.5369 34.9631 24.4787C35.7325 23.1145 34.2616 20.386 31.6851 18.4011C29.9233 17.0434 27.9545 16.2707 26.5289 16.2707Z" fill="#2C3639" fill-opacity="0.26"/>
<path d="M32.6813 24.7203C31.4755 24.7203 29.8333 24.0608 28.2589 22.8485C27.1371 21.9854 26.2287 20.9735 25.7018 20.0005C25.1328 18.9466 25.0682 18.0414 25.5208 17.4531C25.5596 17.4013 25.6113 17.3464 25.6662 17.2947C26.6749 16.3507 29.1544 16.9649 31.4399 18.7235C33.7223 20.4822 34.9507 22.7225 34.2945 23.9348C34.2557 24.0059 34.2169 24.0641 34.1749 24.119C33.8645 24.5263 33.3376 24.7203 32.6813 24.7203ZM28.6533 22.3345C30.9033 24.0673 33.0983 24.4552 33.6641 23.7214C33.6867 23.6923 33.7093 23.66 33.7287 23.6212C34.1522 22.8324 33.2471 20.9283 31.0423 19.2311C28.8376 17.5339 26.7654 17.146 26.1091 17.7602C26.0768 17.7893 26.0542 17.8184 26.0315 17.8442C25.7438 18.216 25.8311 18.8884 26.2675 19.6901C26.7557 20.5888 27.6027 21.5263 28.6533 22.3345Z" fill="#2C3639" fill-opacity="0.26"/>
<path opacity="0.25" d="M33.9192 23.9188C33.1498 24.9177 30.7058 24.3229 28.4558 22.5901C26.209 20.8606 25.0065 18.6461 25.7791 17.6472C25.8114 17.602 25.8502 17.5599 25.8922 17.5211C26.7683 16.7033 29.0927 17.3175 31.2424 18.9727C33.389 20.6278 34.5787 22.7194 34.0097 23.7765C33.9838 23.825 33.9547 23.8767 33.9192 23.9188Z" fill="#2C3639" fill-opacity="0.26"/>
<path opacity="0.5" d="M102.598 14.127L104.758 18.0257C106.064 20.3823 103.316 24.4007 98.6218 26.9966C93.9311 29.5957 89.069 29.7897 87.763 27.433L85.6035 23.5343C86.9096 25.8877 91.7684 25.6938 96.4591 23.0946C101.153 20.4987 103.901 16.4836 102.598 14.127Z" fill="#2C3639" fill-opacity="0.26"/>
<path opacity="0.25" d="M102.397 13.8292C100.855 11.7958 96.2157 12.0835 91.7319 14.5663C87.2481 17.0491 84.5422 20.8281 85.4474 23.2139C85.4894 23.3271 85.5412 23.4338 85.5961 23.5372C86.9021 25.8939 91.761 25.6967 96.4517 23.0975C101.146 20.4984 103.894 16.4833 102.587 14.1266C102.533 14.0232 102.468 13.923 102.397 13.8292ZM95.7114 21.7527C92.081 23.7635 88.4183 24.0835 87.5261 22.4736C87.4873 22.3993 87.4517 22.3249 87.4226 22.2473C86.8343 20.5986 89.0099 17.8346 92.4787 15.9144C95.9474 13.9941 99.4452 13.6159 100.528 14.993C100.577 15.0577 100.625 15.1256 100.664 15.1967C101.559 16.8066 99.3386 19.7452 95.7114 21.7527Z" fill="#2C3639" fill-opacity="0.26"/>
<path d="M91.5524 29.4214C89.6418 29.4214 88.1515 28.8169 87.4759 27.5949L85.3164 23.6962L85.8821 23.3826C86.4511 24.4106 87.825 24.9311 89.7453 24.8568C91.7464 24.7759 94.074 24.0518 96.3013 22.8201C98.5287 21.5884 100.378 19.9979 101.509 18.3427C102.595 16.7555 102.88 15.3169 102.314 14.2921L102.88 13.9785C102.88 13.9785 102.88 13.9785 102.88 13.9817L105.036 17.8805C106.449 20.4311 103.698 24.5658 98.7744 27.291C96.2076 28.707 93.6311 29.4246 91.5524 29.4214ZM86.7873 25.0119L88.0416 27.2813C89.2571 29.4764 93.9317 29.2242 98.4608 26.7156C102.99 24.207 105.686 20.3794 104.471 18.1843L103.213 15.9149C103.106 16.7749 102.715 17.7221 102.043 18.7048C100.856 20.4408 98.9296 22.1024 96.6149 23.3826C94.3002 24.6628 91.8724 25.416 89.7711 25.5001C88.5847 25.5486 87.5729 25.3805 86.7873 25.0119Z" fill="#2C3639" fill-opacity="0.26"/>
<path d="M89.3804 25.5098C87.402 25.5098 85.9699 24.8729 85.3169 23.6962C85.2522 23.5798 85.194 23.457 85.1488 23.3277C84.166 20.7447 86.9332 16.8589 91.5787 14.2856C96.2274 11.7124 100.989 11.4343 102.657 13.6359C102.741 13.7425 102.813 13.8589 102.877 13.9753C103.569 15.2296 103.275 16.9074 102.043 18.7081C100.857 20.4408 98.9268 22.1024 96.6154 23.3859C94.3039 24.6693 91.8729 25.4193 89.7716 25.5033C89.6391 25.5033 89.5098 25.5065 89.3804 25.5098ZM98.8233 12.7953C96.8449 12.7953 94.333 13.4968 91.8891 14.8481C87.5927 17.2242 84.8998 20.8514 85.7501 23.0949C85.7856 23.1951 85.8309 23.2889 85.8794 23.3794C86.4483 24.4074 87.819 24.9279 89.7425 24.8503C91.7436 24.7695 94.0712 24.0453 96.2985 22.8137C98.5227 21.582 100.372 19.9915 101.503 18.3395C102.589 16.749 102.877 15.3104 102.308 14.2824C102.26 14.1951 102.202 14.1078 102.14 14.0206C101.516 13.1994 100.323 12.7953 98.8233 12.7953Z" fill="#2C3639" fill-opacity="0.26"/>
<path d="M89.997 23.8218C88.6877 23.8218 87.6888 23.4306 87.2426 22.6289C87.1974 22.5481 87.1586 22.4608 87.1198 22.3606C86.4636 20.5276 88.7006 17.6375 92.3213 15.63C95.942 13.6224 99.5788 13.2636 100.781 14.7895C100.846 14.8735 100.901 14.9543 100.946 15.0384C101.444 15.9371 101.156 17.172 100.141 18.5201C99.178 19.7938 97.6586 21.0416 95.8676 22.0373C93.7405 23.214 91.6263 23.8218 89.997 23.8218ZM98.2405 14.4921C96.7179 14.4921 94.6392 15.0869 92.6381 16.199C89.4021 17.9899 87.2006 20.6569 87.734 22.1408C87.7599 22.2054 87.7825 22.2636 87.8116 22.3186C88.6036 23.7442 92.15 23.3595 95.5573 21.4716C97.2739 20.5212 98.7189 19.3347 99.6306 18.1321C100.474 17.0201 100.749 16.005 100.387 15.352C100.358 15.3002 100.322 15.2453 100.277 15.1903C99.9054 14.7183 99.1748 14.4921 98.2405 14.4921Z" fill="#2C3639" fill-opacity="0.26"/>
<path opacity="0.25" d="M100.669 15.1973C101.561 16.8072 99.3399 19.7458 95.7127 21.7533C92.0823 23.7608 88.4196 24.0841 87.5274 22.471C87.4886 22.3998 87.4562 22.3223 87.4239 22.2479C86.8355 20.5992 89.0112 17.8352 92.4799 15.9149C95.9487 13.9947 99.4465 13.6164 100.53 14.9936C100.581 15.055 100.626 15.1229 100.669 15.1973Z" fill="#2C3639" fill-opacity="0.26"/>
<path opacity="0.25" d="M85.4345 40.4284C85.2632 40.0566 85.0595 39.701 84.8203 39.3648C84.5358 39.0286 84.219 38.7215 83.8828 38.4402C83.8796 38.437 83.8763 38.437 83.8763 38.437C83.4949 38.1622 83.0908 37.9262 82.6608 37.729C82.6608 37.729 82.6544 37.729 82.6544 37.7258C82.2147 37.5609 81.7589 37.4349 81.2934 37.3573H81.2901C80.7761 37.3088 80.2589 37.3088 79.7449 37.3605C79.7416 37.3605 79.7352 37.3605 79.732 37.3637C79.1791 37.4575 78.636 37.6062 78.1123 37.8099C78.1091 37.8099 78.1059 37.8131 78.1026 37.8131C77.5563 38.0588 77.0391 38.3594 76.5574 38.7118C76.1177 39.0706 75.7104 39.4747 75.3516 39.9144C75.3516 39.9144 75.3516 39.9144 75.3483 39.9176C75.0477 40.3346 74.7858 40.7808 74.5725 41.2495C74.5725 41.2495 74.5692 41.2527 74.5725 41.2527C74.4238 41.6407 74.3106 42.0415 74.2266 42.4489H85.9033C85.8968 42.3163 85.8839 42.1838 85.871 42.0545C85.7837 41.5017 85.6447 40.9553 85.441 40.4348L85.4345 40.4284Z" fill="#2C3639" fill-opacity="0.26"/>
<path opacity="0.25" d="M106.665 40.4284C106.494 40.0566 106.287 39.701 106.051 39.3648C105.766 39.0286 105.449 38.7215 105.113 38.4402C105.11 38.437 105.107 38.437 105.107 38.437C104.725 38.1622 104.321 37.9262 103.895 37.729C103.895 37.729 103.888 37.729 103.888 37.7258C103.448 37.5609 102.993 37.4349 102.527 37.3573H102.521C102.007 37.3088 101.493 37.3088 100.979 37.3605C100.975 37.3605 100.972 37.3605 100.966 37.3637C100.413 37.4575 99.8698 37.6062 99.346 37.8099C99.3428 37.8099 99.3396 37.8131 99.3331 37.8131C98.79 38.0588 98.2695 38.3594 97.7879 38.7118C97.3482 39.0706 96.9441 39.4747 96.582 39.9144C96.582 39.9144 96.582 39.9144 96.5788 39.9176C96.2782 40.3346 96.0163 40.7808 95.7997 41.2495C95.7997 41.2495 95.7965 41.2527 95.7997 41.2527C95.6542 41.6407 95.5379 42.0415 95.457 42.4489H107.134C107.127 42.3163 107.114 42.1838 107.101 42.0545C107.011 41.5017 106.872 40.9553 106.671 40.4348L106.665 40.4284Z" fill="#2C3639" fill-opacity="0.26"/>
<path opacity="0.25" d="M64.208 40.4284C64.0399 40.0566 63.833 39.701 63.5938 39.3648C63.3093 39.0286 62.9925 38.7215 62.6563 38.4402C62.6531 38.437 62.6531 38.437 62.6499 38.437C62.2684 38.1622 61.8643 37.9262 61.4376 37.729H61.4343C61.4343 37.729 61.4311 37.729 61.4311 37.7258C60.9914 37.5609 60.5356 37.4349 60.0701 37.3573H60.0669C59.5529 37.3088 59.0389 37.3088 58.5249 37.3605C58.5216 37.3605 58.5184 37.3605 58.5119 37.3637C57.9591 37.4575 57.416 37.6062 56.8923 37.8099C56.8891 37.8099 56.8858 37.8131 56.8826 37.8131C56.3363 38.0588 55.819 38.3594 55.3374 38.7118C54.8977 39.0706 54.4904 39.4747 54.1315 39.9144C54.1315 39.9144 54.1315 39.9144 54.1315 39.9176C53.8309 40.3346 53.569 40.7808 53.3557 41.2495C53.3524 41.2495 53.3524 41.2527 53.3524 41.2527C53.207 41.6407 53.0906 42.0415 53.0098 42.4489H64.6865C64.68 42.3163 64.6671 42.1838 64.6542 42.0545C64.5669 41.5017 64.4246 40.9553 64.2242 40.4348L64.208 40.4284Z" fill="#2C3639" fill-opacity="0.26"/>
<path opacity="0.25" d="M38.6215 110.062C38.6506 109.994 38.6765 109.923 38.6991 109.855C39.5202 107.295 36.4846 103.487 31.6549 101.137C31.587 101.104 31.5159 101.069 31.4448 101.036C31.073 100.862 30.7045 100.7 30.3359 100.555C30.3618 100.655 30.3909 100.755 30.4168 100.855C30.8047 101.014 31.1991 101.185 31.587 101.376C36.3974 103.7 39.4426 107.46 38.6474 109.975C38.6409 110.004 38.6312 110.033 38.6215 110.062Z" fill="#2C3639" fill-opacity="0.26"/>
<path opacity="0.25" d="M15.9859 30.9923H32.2434C35.7897 30.9923 39.0419 32.2498 41.5796 34.3382C42.0871 34.5483 42.5785 34.7843 43.0376 35.0914C44.2402 35.8867 45.2908 36.9277 45.9794 38.2014C46.6874 39.5139 47.0268 40.946 47.127 42.4233C47.127 42.4298 47.127 42.4363 47.127 42.4427H49.3059C49.3285 42.2423 49.3544 42.0451 49.3835 41.8447C49.4514 41.3565 49.571 40.8748 49.7391 40.4093C50.1755 39.197 50.8027 38.1367 51.6432 37.1572C52.3609 36.3231 53.2531 35.6054 54.2003 35.0526C55.154 34.4934 56.224 34.0634 57.307 33.8501C57.9212 33.7272 58.5613 33.6464 59.1884 33.6367C59.8285 33.6238 60.4718 33.7014 61.0958 33.8145C61.5807 33.8986 62.0559 34.0343 62.5117 34.2186C63.1227 34.4611 63.7175 34.7294 64.2703 35.0947C65.4697 35.8899 66.5203 36.9309 67.2089 38.2046C67.9169 39.5171 68.2563 40.9492 68.3565 42.4266C68.3565 42.433 68.3565 42.4395 68.3565 42.446H70.5354C70.5548 42.2455 70.5839 42.0483 70.613 41.8479C70.6809 41.3598 70.8037 40.8781 70.9686 40.4126C71.405 39.2003 72.0322 38.1399 72.8727 37.1604C73.5904 36.3264 74.4826 35.6087 75.4298 35.0559C76.3802 34.4966 77.4503 34.0667 78.5365 33.8533C79.154 33.7304 79.7908 33.6496 80.418 33.6399C81.0548 33.627 81.6981 33.7046 82.3253 33.8177C82.8102 33.9018 83.2854 34.0376 83.738 34.2218C84.349 34.4643 84.9438 34.7326 85.4934 35.0979C86.6928 35.8932 87.7466 36.9341 88.4352 38.2078C89.1432 39.5203 89.4826 40.9524 89.5828 42.4298C89.5828 42.4363 89.5828 42.4427 89.5828 42.4492H91.7585C91.7811 42.2488 91.807 42.0516 91.8361 41.8511C91.904 41.363 92.0236 40.8813 92.1917 40.4158C92.6281 39.2035 93.2552 38.1432 94.0958 37.1636C94.8134 36.3296 95.7057 35.6119 96.6529 35.0591C97.6065 34.4998 98.6766 34.0699 99.7596 33.8565C100.377 33.7337 101.014 33.6529 101.641 33.6432C102.281 33.6302 102.921 33.7078 103.548 33.821C104.03 33.905 104.505 34.0408 104.961 34.2251C105.575 34.4675 106.17 34.7358 106.72 35.1011C107.767 35.7962 108.705 36.6787 109.38 37.7391C109.949 36.8598 110.609 36.0419 111.346 35.3016C114.006 32.6442 117.676 30.9988 121.736 30.9988H133.823C137.88 30.9988 141.553 29.3533 144.213 26.696C146.874 24.0386 148.516 20.3662 148.516 16.3059C148.516 8.19166 141.937 1.61623 133.823 1.61623H15.9859C11.9287 1.60976 8.25633 3.25524 5.59577 5.91257C2.93521 8.56989 1.29297 12.2423 1.29297 16.2994C1.29297 24.4136 7.87163 30.9923 15.9859 30.9923ZM91.7326 14.5667C96.2165 12.0839 100.855 11.7962 102.397 13.8296C102.472 13.9266 102.536 14.0236 102.595 14.127L104.754 18.0257C106.06 20.3824 103.312 24.4007 98.6184 26.9966C93.9277 29.5958 89.0656 29.7897 87.7596 27.433L85.6001 23.5343C85.5419 23.4277 85.4934 23.321 85.4514 23.2078C84.543 20.8253 87.2488 17.0494 91.7326 14.5667ZM22.7229 19.1442L24.585 16.7294C24.6335 16.6647 24.6884 16.6033 24.7466 16.5483C25.9977 15.3296 29.1076 16.002 31.8813 18.1421C34.6615 20.2822 36.1033 23.1141 35.2466 24.6367C35.2078 24.7078 35.1626 24.7757 35.1109 24.8404L33.2488 27.2552C32.1238 28.7132 28.8555 28.0828 25.9492 25.8458C23.043 23.6055 21.5979 20.6055 22.7229 19.1442Z" fill="#2C3639" fill-opacity="0.26"/>
<path opacity="0.25" d="M26.3019 115.093C26.3019 115.093 26.2858 115.106 26.2793 115.115C28.2577 115.927 30.1974 116.35 31.8623 116.383C30.2039 116.334 28.2707 115.904 26.3019 115.093Z" fill="#2C3639" fill-opacity="0.26"/>
<path opacity="0.25" d="M139.705 120.365L140.497 123.184H96.2501L96.0949 120.52C96.0819 120.323 96.0593 120.129 96.0205 119.935C95.9656 119.667 95.8815 119.402 95.7716 119.143H95.7587C95.8395 119.35 95.9042 119.56 95.9462 119.774C95.985 119.961 96.0108 120.155 96.0238 120.349L96.4667 127.574C96.735 131.942 89.9042 135.912 81.208 136.445C72.5119 136.978 65.2479 133.875 64.9796 129.508L64.5367 122.282C64.5238 122.088 64.527 121.894 64.5432 121.704C64.8567 117.873 70.5626 114.456 78.0173 113.573C70.4817 114.427 64.7048 117.87 64.3718 121.755C64.3557 121.949 64.3524 122.147 64.3654 122.344L64.4139 123.191H35.9527L35.1024 119.014H18.1595C17.5098 119.101 16.847 119.15 16.1714 119.15H15.9839C11.9268 119.15 8.25438 120.795 5.59382 123.453C2.93326 126.113 1.29102 129.782 1.29102 133.843C1.29102 141.957 7.86645 148.532 15.9807 148.532H133.824C137.878 148.532 141.554 146.887 144.211 144.229C146.872 141.569 148.514 137.9 148.514 133.843C148.514 127.82 144.887 122.641 139.702 120.375L139.705 120.365Z" fill="#2C3639" fill-opacity="0.26"/>
<path opacity="0.25" d="M133.827 60.3779H122.846L125.345 69.281C132.706 73.0697 138.667 79.9458 140.901 87.9469C142.119 87.2745 143.238 86.4372 144.211 85.4577C146.872 82.8003 148.514 79.1279 148.514 75.0708C148.517 66.9501 141.938 60.3747 133.827 60.3779Z" fill="#2C3639" fill-opacity="0.26"/>
<path opacity="0.25" d="M12.4525 89.3308L16.8231 60.375H15.9859C11.9287 60.375 8.25633 62.0205 5.59577 64.6778C2.93521 67.3384 1.29297 71.0075 1.29297 75.0647C1.29297 81.9666 6.04512 87.7468 12.4525 89.3308Z" fill="#2C3639" fill-opacity="0.26"/>
<path opacity="0.25" d="M99.9221 70.335C99.9125 70.3382 99.9028 70.3447 99.8898 70.3479C99.8834 70.3511 99.8737 70.3544 99.8672 70.3608C99.8866 70.3511 99.9028 70.3414 99.9221 70.335Z" fill="#2C3639" fill-opacity="0.26"/>
<path opacity="0.25" d="M84.5723 89.1589C84.6078 88.7386 84.9279 88.4347 85.4031 88.4347H89.9193C89.9193 88.4444 89.9193 88.4541 89.9193 88.4606C89.9193 88.4444 89.9193 88.4283 89.9193 88.4121C89.9193 88.4186 89.9193 88.425 89.9193 88.4315H85.4031C84.9279 88.4315 84.6078 88.7354 84.5723 89.1589Z" fill="#2C3639" fill-opacity="0.26"/>
<path opacity="0.25" d="M111.619 66.1846C111.512 66.191 111.402 66.1943 111.299 66.2007C111.286 66.2007 111.269 66.204 111.26 66.204C111.376 66.1975 111.496 66.191 111.619 66.1846Z" fill="#2C3639" fill-opacity="0.26"/>
<path opacity="0.25" d="M112.913 66.145C112.952 66.145 112.991 66.145 113.033 66.145C112.994 66.145 112.952 66.1418 112.913 66.145C112.629 66.1418 112.344 66.1482 112.066 66.1579C112.348 66.1515 112.629 66.1418 112.913 66.145Z" fill="#2C3639" fill-opacity="0.26"/>
</svg>
