<svg width="28" height="24" viewBox="0 0 28 24" fill="none" xmlns="http://www.w3.org/2000/svg">
<path d="M2.47655 14.5758C2.22199 14.3213 2.01693 14.0031 1.88258 13.6283C1.74823 13.2535 1.66338 12.8576 1.64216 12.4262C1.60681 11.6979 1.71288 11.0403 1.96743 10.4322C2.21492 9.83113 2.58262 9.27959 3.07759 8.78462C3.79884 8.06337 4.73929 7.46233 5.89895 6.99564C7.0586 6.52895 8.33847 6.18246 9.73147 5.96326C11.1386 5.74406 12.567 5.63092 14.0307 5.62385C15.4944 5.63092 16.9227 5.74406 18.3157 5.96326C19.7017 6.18953 20.9745 6.52895 22.1129 6.98857C23.2584 7.45526 24.1989 8.0563 24.9343 8.79169C25.4151 9.27252 25.7899 9.81699 26.0444 10.411C26.3061 11.012 26.4333 11.6767 26.4121 12.405C26.405 13.303 26.1293 14.0172 25.606 14.5405C25.408 14.7385 25.1676 14.894 24.906 14.9859C24.6373 15.0849 24.3474 15.1203 24.0362 15.0637L20.0835 14.392C19.7795 14.3425 19.5249 14.2718 19.3057 14.1798C19.0936 14.095 18.9097 13.9819 18.7754 13.8475C18.6057 13.6778 18.4855 13.4586 18.4218 13.197C18.3511 12.9424 18.3157 12.6383 18.3157 12.2989L18.2945 11.2029C18.2945 11.0474 18.238 10.9201 18.1248 10.8069C18.0683 10.7504 18.0117 10.7079 17.941 10.6655C17.8632 10.6302 17.7996 10.609 17.743 10.5807C17.3824 10.4746 16.8591 10.3897 16.1803 10.3332C15.4944 10.2837 14.7802 10.2483 14.0377 10.2413C13.2811 10.2483 12.567 10.2695 11.874 10.3261C11.1952 10.3827 10.679 10.4746 10.3113 10.5877C10.2618 10.609 10.1982 10.6302 10.1274 10.6585C10.0497 10.6938 9.98603 10.7433 9.92239 10.8069C9.80218 10.9272 9.75268 11.0615 9.75268 11.2171L9.74561 12.2848C9.74561 12.6383 9.71025 12.9424 9.63247 13.1899C9.56883 13.4515 9.4557 13.6637 9.27892 13.8404C9.14457 13.9748 8.97486 14.0879 8.75566 14.1798C8.53646 14.2718 8.2819 14.3425 7.98491 14.399L3.98269 15.0779C3.67156 15.1344 3.39579 15.1132 3.14123 15.0142C2.89375 14.9082 2.67454 14.7738 2.47655 14.5758Z" stroke="white" stroke-width="1.5" stroke-miterlimit="10"/>
</svg>
