<svg width="22" height="23" viewBox="0 0 22 23" fill="none" xmlns="http://www.w3.org/2000/svg">
<path d="M20.1379 17.3032C20.1379 17.6332 20.0645 17.9723 19.9087 18.3023C19.7529 18.6323 19.5512 18.944 19.2854 19.2373C18.8362 19.7323 18.3412 20.0898 17.782 20.319C17.232 20.5482 16.6362 20.6673 15.9945 20.6673C15.0595 20.6673 14.0604 20.4473 13.0062 19.9982C11.952 19.549 10.8979 18.944 9.85286 18.1832C8.7987 17.4132 7.79953 16.5607 6.8462 15.6165C5.90203 14.6632 5.04953 13.664 4.2887 12.619C3.53703 11.574 2.93203 10.529 2.49203 9.49315C2.05203 8.44815 1.83203 7.44898 1.83203 6.49565C1.83203 5.87232 1.94203 5.27648 2.16203 4.72648C2.38203 4.16732 2.73036 3.65398 3.2162 3.19565C3.80286 2.61815 4.44453 2.33398 5.12286 2.33398C5.37953 2.33398 5.6362 2.38898 5.86536 2.49898C6.1037 2.60898 6.31453 2.77398 6.47953 3.01232L8.6062 6.00982C8.7712 6.23898 8.89036 6.44982 8.97286 6.65148C9.05536 6.84398 9.1012 7.03648 9.1012 7.21065C9.1012 7.43065 9.03703 7.65065 8.9087 7.86148C8.78953 8.07232 8.61536 8.29232 8.39536 8.51232L7.6987 9.23648C7.59786 9.33732 7.55203 9.45648 7.55203 9.60315C7.55203 9.67648 7.5612 9.74065 7.57953 9.81398C7.60703 9.88732 7.63453 9.94232 7.65286 9.99732C7.81786 10.2998 8.10203 10.694 8.50536 11.1707C8.91786 11.6473 9.35786 12.1332 9.83453 12.619C10.3295 13.1048 10.8062 13.554 11.292 13.9665C11.7687 14.3698 12.1629 14.6448 12.4745 14.8098C12.5204 14.8282 12.5754 14.8557 12.6395 14.8832C12.7129 14.9107 12.7862 14.9198 12.8687 14.9198C13.0245 14.9198 13.1437 14.8648 13.2445 14.764L13.9412 14.0765C14.1704 13.8473 14.3904 13.6732 14.6012 13.5632C14.812 13.4348 15.0229 13.3707 15.252 13.3707C15.4262 13.3707 15.6095 13.4073 15.8112 13.4898C16.0129 13.5723 16.2237 13.6915 16.4529 13.8473L19.487 16.0015C19.7254 16.1665 19.8904 16.359 19.9912 16.5881C20.0829 16.8173 20.1379 17.0465 20.1379 17.3032Z" stroke="#FFB207" stroke-width="1.375" stroke-miterlimit="10"/>
<path d="M16.9564 8.75033C16.9564 8.20033 16.5255 7.35699 15.8839 6.66949C15.2972 6.03699 14.518 5.54199 13.748 5.54199" stroke="#FFB207" stroke-width="1.375" stroke-linecap="round" stroke-linejoin="round"/>
<path d="M20.1647 8.75065C20.1647 5.20315 17.2955 2.33398 13.748 2.33398" stroke="#FFB207" stroke-width="1.375" stroke-linecap="round" stroke-linejoin="round"/>
</svg>
