<svg width="54" height="54" viewBox="0 0 54 54" fill="none" xmlns="http://www.w3.org/2000/svg">
<path d="M4.5 22.5H49.5" stroke="#FFB207" stroke-width="3.375" stroke-miterlimit="10" stroke-linecap="round" stroke-linejoin="round"/>
<path d="M25.9827 46.124H14.4852C6.49768 46.124 4.47266 44.144 4.47266 36.2465V17.7515C4.47266 10.5965 6.13772 8.30149 12.4152 7.94149C13.0452 7.91899 13.7427 7.89648 14.4852 7.89648H39.4827C47.4702 7.89648 49.4952 9.87648 49.4952 17.774V27.6965" stroke="#FFB207" stroke-width="3.375" stroke-linecap="round" stroke-linejoin="round"/>
<path d="M13.5 36H22.5" stroke="#FFB207" stroke-width="3.375" stroke-miterlimit="10" stroke-linecap="round" stroke-linejoin="round"/>
<path d="M49.5 40.5C49.5 42.1875 49.0275 43.785 48.195 45.135C46.6425 47.745 43.785 49.5 40.5 49.5C37.215 49.5 34.3575 47.745 32.805 45.135C31.9725 43.785 31.5 42.1875 31.5 40.5C31.5 35.5275 35.5275 31.5 40.5 31.5C45.4725 31.5 49.5 35.5275 49.5 40.5Z" stroke="#FFB207" stroke-width="3.375" stroke-miterlimit="10" stroke-linecap="round" stroke-linejoin="round"/>
<path d="M36.9922 40.4989L39.2197 42.7264L44.0122 38.2939" stroke="#FFB207" stroke-width="3.375" stroke-linecap="round" stroke-linejoin="round"/>
</svg>
