<svg width="24" height="24" viewBox="0 0 24 24" fill="none" xmlns="http://www.w3.org/2000/svg">
<path d="M5.4796 18.4898V15.5698C5.4796 14.5998 6.2396 13.7298 7.3196 13.7298C8.2896 13.7298 9.15959 14.4898 9.15959 15.5698V18.3798C9.15959 20.3298 7.53959 21.9498 5.58959 21.9498C3.63959 21.9498 2.01958 20.3198 2.01958 18.3798V12.2198C1.90958 6.59979 6.34959 2.0498 11.9696 2.0498C17.5896 2.0498 22.0196 6.5998 22.0196 12.1098V18.2698C22.0196 20.2198 20.3996 21.8398 18.4496 21.8398C16.4996 21.8398 14.8796 20.2198 14.8796 18.2698V15.4598C14.8796 14.4898 15.6396 13.6198 16.7196 13.6198C17.6896 13.6198 18.5596 14.3798 18.5596 15.4598V18.4898" stroke="#FFB207" stroke-width="1.5" stroke-linecap="round" stroke-linejoin="round"/>
</svg>
