<svg width="60" height="72" viewBox="0 0 60 72" fill="none" xmlns="http://www.w3.org/2000/svg">
<circle opacity="0.1" cx="30" cy="42" r="30" fill="#2C3639"/>
<circle opacity="0.1" cx="30" cy="42" r="12" fill="#2C3639"/>
<circle cx="30" cy="42" r="6" fill="#A4A8AB"/>
<path d="M46.919 16.4831C46.4206 7.98656 39.6389 1.15921 31.1469 0.601308C26.3956 0.290339 21.873 1.90462 18.4159 5.14228C15.0044 8.33418 13.0518 12.8431 13.0518 17.5075C13.0518 23.3106 15.9739 28.6518 20.8714 31.7888C23.7662 33.6409 26.1761 36.3892 27.8497 39.7275L29.4869 43.0109C29.5875 43.2075 29.7841 43.3311 29.999 43.3311C30.1053 43.3313 30.2096 43.3019 30.3 43.2462C30.3905 43.1904 30.4636 43.1105 30.5112 43.0155L32.2946 39.4486C33.8174 36.403 36.264 33.7004 39.3736 31.6334C44.381 28.3042 47.2757 22.5012 46.919 16.4831ZM29.9991 8.31131C35.0979 8.31131 39.2456 12.459 39.2456 17.5578C39.2456 22.6521 35.0979 26.7997 29.9991 26.7997C24.9049 26.7997 20.7572 22.652 20.7572 17.5578C20.7572 12.459 24.9049 8.31131 29.9991 8.31131Z" fill="#FFB207"/>
</svg>
