<svg width="24" height="24" viewBox="0 0 24 24" fill="none" xmlns="http://www.w3.org/2000/svg">
<path d="M20.7248 3.75H3.27525C2.60582 3.75099 1.96409 4.01736 1.49072 4.49072C1.01736 4.96409 0.750992 5.60582 0.75 6.27525V17.7247C0.750992 18.3942 1.01736 19.0359 1.49072 19.5093C1.96409 19.9826 2.60582 20.249 3.27525 20.25H20.7248C21.3942 20.249 22.0359 19.9826 22.5093 19.5093C22.9826 19.0359 23.249 18.3942 23.25 17.7247V6.27525C23.249 5.60582 22.9826 4.96409 22.5093 4.49072C22.0359 4.01736 21.3942 3.75099 20.7248 3.75ZM3.27525 5.25H20.7248C20.9966 5.2502 21.2573 5.35828 21.4495 5.55051C21.6417 5.74274 21.7498 6.0034 21.75 6.27525V8.25H2.25V6.27525C2.2502 6.0034 2.35828 5.74274 2.55051 5.55051C2.74274 5.35828 3.0034 5.2502 3.27525 5.25ZM20.7248 18.75H3.27525C3.0034 18.7498 2.74274 18.6417 2.55051 18.4495C2.35828 18.2573 2.2502 17.9966 2.25 17.7247V9.75H21.75V17.7247C21.7498 17.9966 21.6417 18.2573 21.4495 18.4495C21.2573 18.6417 20.9966 18.7498 20.7248 18.75Z" fill="#717C88"/>
<path d="M7.875 13.5003C8.07391 13.5003 8.26468 13.4213 8.40533 13.2806C8.54598 13.14 8.625 12.9492 8.625 12.7503C8.625 12.5514 8.54598 12.3606 8.40533 12.22C8.26468 12.0793 8.07391 12.0003 7.875 12.0003H5.625C5.42609 12.0003 5.23532 12.0793 5.09467 12.22C4.95402 12.3606 4.875 12.5514 4.875 12.7503V15.7503C4.875 15.9492 4.95402 16.14 5.09467 16.2806C5.23532 16.4213 5.42609 16.5003 5.625 16.5003H7.875C8.07391 16.5003 8.26468 16.4213 8.40533 16.2806C8.54598 16.14 8.625 15.9492 8.625 15.7503C8.625 15.5514 8.54598 15.3606 8.40533 15.22C8.26468 15.0793 8.07391 15.0003 7.875 15.0003H6.375V13.5003H7.875ZM18.7103 12.0791C18.532 11.9913 18.3264 11.9773 18.138 12.0402C17.9495 12.1031 17.7935 12.2378 17.7037 12.4151L16.875 14.0733L16.05 12.4151C15.9611 12.237 15.8051 12.1016 15.6163 12.0386C15.4276 11.9756 15.2215 11.9901 15.0435 12.0791C14.8655 12.168 14.7301 12.324 14.667 12.5127C14.604 12.7015 14.6186 12.9075 14.7075 13.0856L16.2075 16.0856C16.2697 16.2104 16.3655 16.3154 16.484 16.3887C16.6026 16.4621 16.7393 16.501 16.8787 16.501C17.0182 16.501 17.1549 16.4621 17.2735 16.3887C17.392 16.3154 17.4878 16.2104 17.55 16.0856L19.05 13.0856C19.1375 12.9069 19.1509 12.7009 19.0873 12.5124C19.0236 12.3239 18.8881 12.1681 18.7103 12.0791ZM13.4603 12.0791C13.282 11.9913 13.0764 11.9773 12.888 12.0402C12.6995 12.1031 12.5435 12.2378 12.4537 12.4151L11.625 14.0733L10.8 12.4151C10.7111 12.237 10.5551 12.1016 10.3663 12.0386C10.1776 11.9756 9.97153 11.9901 9.7935 12.0791C9.61547 12.168 9.48006 12.324 9.41705 12.5127C9.35403 12.7015 9.36859 12.9075 9.4575 13.0856L10.9575 16.0856C11.0197 16.2104 11.1155 16.3154 11.234 16.3887C11.3526 16.4621 11.4893 16.501 11.6287 16.501C11.7682 16.501 11.9049 16.4621 12.0235 16.3887C12.142 16.3154 12.2378 16.2104 12.3 16.0856L13.8 13.0856C13.8875 12.9069 13.9009 12.7009 13.8373 12.5124C13.7736 12.3239 13.6381 12.1681 13.4603 12.0791Z" fill="#717C88"/>
</svg>
