<svg width="24" height="24" viewBox="0 0 24 24" fill="none" xmlns="http://www.w3.org/2000/svg">
<path d="M16.5269 19.8C16.1243 18.5494 16.1602 17.1845 16.6279 15.9566L16.7117 15.7364C18.5287 10.967 18.007 6.00208 17.7618 5.29653C17.7859 5.15413 17.7982 5.0095 17.7982 4.86354C17.7982 3.44166 16.6414 2.28489 15.2195 2.28489C15.0195 2.28499 14.8201 2.30828 14.6255 2.35429C14.0275 1.51404 13.0486 1 11.9962 1C10.9437 1 9.96477 1.51404 9.36691 2.3542C9.17224 2.30819 8.97289 2.28491 8.77286 2.28481C7.35099 2.28481 6.19422 3.44161 6.19422 4.86345C6.19422 5.00946 6.20643 5.15409 6.23057 5.29645C6.16965 5.4718 5.26408 10.443 7.28065 15.7363L7.36452 15.9566C7.83224 17.1844 7.86811 18.5493 7.46554 19.8L7.34613 20.171C7.03607 20.7627 7.0502 21.4548 7.3879 22.0367C7.738 22.6399 8.36329 23 9.06067 23H14.9318C15.6292 23 16.2545 22.6399 16.6045 22.0367C16.9422 21.4548 16.9564 20.7627 16.6463 20.171L16.5269 19.8ZM8.77286 3.57417C8.97972 3.57417 9.17699 3.62144 9.35917 3.71477C9.43653 3.75436 9.52109 3.77791 9.60778 3.784C9.69447 3.79008 9.78149 3.77858 9.86362 3.75018C9.94575 3.72178 10.0213 3.67707 10.0857 3.61873C10.1501 3.5604 10.2021 3.48964 10.2384 3.41072C10.5536 2.72679 11.2436 2.28489 11.9962 2.28489C12.7488 2.28489 13.4388 2.72683 13.7539 3.41072C13.7902 3.48965 13.8422 3.56042 13.9066 3.61877C13.971 3.67711 14.0466 3.72183 14.1287 3.75023C14.2108 3.77863 14.2979 3.79013 14.3845 3.78404C14.4712 3.77794 14.5558 3.75438 14.6332 3.71477C14.8153 3.62152 15.0126 3.57417 15.2195 3.57417C15.9304 3.57417 16.5088 4.11412 16.5088 4.82499H14.5748C14.2188 4.82499 13.9301 5.15211 13.9301 5.50815V8.17277C13.9301 8.52825 13.641 8.81743 13.2855 8.81743C12.93 8.81743 12.6408 8.52825 12.6408 8.17277V5.46965C12.6408 5.11361 12.3522 4.82499 11.9962 4.82499H7.4835C7.4835 4.11407 8.0619 3.57417 8.77286 3.57417ZM7.38875 6.43765L7.38961 6.43013L7.41896 6.15286H11.3515V8.17282C11.3515 9.23921 12.2191 10.1068 13.2855 10.1068C14.3519 10.1068 15.2195 9.23921 15.2195 8.17282V6.15286H16.5734L16.6028 6.43013L16.6036 6.43765C16.9541 9.41711 16.5748 12.4739 15.5068 15.2775L15.4229 15.4977C14.9815 16.6564 14.8551 17.9149 15.0468 19.132H8.94547C9.13715 17.9149 9.01074 16.6564 8.56936 15.4978L8.48549 15.2774C7.41746 12.4739 7.03822 9.41715 7.38875 6.43765ZM15.4893 21.3895C15.4332 21.486 15.2667 21.7106 14.9317 21.7106H9.06058C8.72551 21.7106 8.55905 21.4861 8.50298 21.3895C8.29892 21.0379 8.48252 20.8482 8.61998 20.4213H15.3723C15.5199 20.8797 15.6867 21.0494 15.4893 21.3895Z" fill="#717C88"/>
</svg>
