<svg width="24" height="24" viewBox="0 0 24 24" fill="none" xmlns="http://www.w3.org/2000/svg">
<path fill-rule="evenodd" clip-rule="evenodd" d="M15.75 4.50879C13.9447 4.50879 12.426 5.80329 12.0765 7.50879H2.25C2.05109 7.50879 1.86032 7.58781 1.71967 7.72846C1.57902 7.86911 1.5 8.05988 1.5 8.25879C1.5 8.4577 1.57902 8.64847 1.71967 8.78912C1.86032 8.92977 2.05109 9.00879 2.25 9.00879H12.0765C12.426 10.715 13.944 12.0088 15.75 12.0088C17.556 12.0088 19.074 10.715 19.4235 9.00879H21.75C21.9489 9.00879 22.1397 8.92977 22.2803 8.78912C22.421 8.64847 22.5 8.4577 22.5 8.25879C22.5 8.05988 22.421 7.86911 22.2803 7.72846C22.1397 7.58781 21.9489 7.50879 21.75 7.50879H19.4235C19.074 5.80329 17.556 4.50879 15.75 4.50879ZM15.75 6.00879C17.0017 6.00879 18 7.00704 18 8.25879C18 9.51054 17.0017 10.5088 15.75 10.5088C14.4983 10.5088 13.5 9.51054 13.5 8.25879C13.5 7.00704 14.4983 6.00879 15.75 6.00879ZM8.25 12.0088C6.44475 12.0088 4.926 13.3033 4.5765 15.0088H2.25C2.05109 15.0088 1.86032 15.0878 1.71967 15.2285C1.57902 15.3691 1.5 15.5599 1.5 15.7588C1.5 15.9577 1.57902 16.1485 1.71967 16.2891C1.86032 16.4298 2.05109 16.5088 2.25 16.5088H4.5765C4.926 18.215 6.444 19.5088 8.25 19.5088C10.056 19.5088 11.574 18.215 11.9235 16.5088H21.75C21.9489 16.5088 22.1397 16.4298 22.2803 16.2891C22.421 16.1485 22.5 15.9577 22.5 15.7588C22.5 15.5599 22.421 15.3691 22.2803 15.2285C22.1397 15.0878 21.9489 15.0088 21.75 15.0088H11.9235C11.574 13.3033 10.056 12.0088 8.25 12.0088ZM8.25 13.5088C9.50175 13.5088 10.5 14.507 10.5 15.7588C10.5 17.0105 9.50175 18.0088 8.25 18.0088C6.99825 18.0088 6 17.0105 6 15.7588C6 14.507 6.99825 13.5088 8.25 13.5088Z" fill="#0C0C0C"/>
</svg>
