<svg width="54" height="54" viewBox="0 0 54 54" fill="none" xmlns="http://www.w3.org/2000/svg">
<path d="M29.0255 37.6164C30.0422 37.6164 30.8664 36.7922 30.8664 35.7755C30.8664 34.7588 30.0422 33.9346 29.0255 33.9346C28.0088 33.9346 27.1846 34.7588 27.1846 35.7755C27.1846 36.7922 28.0088 37.6164 29.0255 37.6164Z" fill="#FFB207"/>
<path d="M35.1921 47.3731H12.2728C10.2427 47.3731 8.591 45.7214 8.591 43.6913V28.5958C8.591 26.5657 10.2427 24.914 12.2728 24.914H38.7819C39.2011 24.914 39.5336 24.951 39.7987 25.0269C40.7761 25.3069 41.7954 24.7416 42.0755 23.7643C42.3555 22.7869 41.7901 21.7676 40.8128 21.4875C40.2133 21.3158 39.549 21.2323 38.7819 21.2323H36.5694V14.7399C36.5694 8.77807 31.6144 3.92773 25.524 3.92773C19.4335 3.92773 14.4785 8.77807 14.4785 14.7399V21.2323H12.2728C8.21251 21.2323 4.90918 24.5356 4.90918 28.5959V43.6914C4.90918 47.7517 8.21251 51.055 12.2728 51.055H35.1921C36.2089 51.055 37.033 50.2308 37.033 49.2141C37.033 48.1974 36.2089 47.3732 35.1921 47.3731ZM18.1603 14.7399C18.1603 10.8082 21.4636 7.60955 25.524 7.60955C29.5843 7.60955 32.8876 10.8082 32.8876 14.7399V21.2323H18.1603V14.7399Z" fill="#FFB207"/>
<path d="M22.1212 37.6164C23.1379 37.6164 23.9621 36.7922 23.9621 35.7755C23.9621 34.7588 23.1379 33.9346 22.1212 33.9346C21.1045 33.9346 20.2803 34.7588 20.2803 35.7755C20.2803 36.7922 21.1045 37.6164 22.1212 37.6164Z" fill="#FFB207"/>
<path d="M49.1011 34.4137C49.0607 30.8433 46.1436 27.9512 42.5639 27.9512C38.9592 27.9512 36.0264 30.8839 36.0264 34.4887C36.0264 35.5054 36.8505 36.3296 37.8673 36.3296C38.884 36.3296 39.7082 35.5054 39.7082 34.4887C39.7082 32.9141 40.9893 31.633 42.564 31.633C44.1387 31.633 45.4197 32.9141 45.4197 34.4887C45.4197 34.5055 45.4199 34.5221 45.4203 34.5387C45.4114 35.0906 45.2426 35.6282 44.9345 36.0862C44.6263 36.5442 44.1919 36.903 43.684 37.1192C41.8853 37.8873 40.7231 39.6613 40.7231 41.6387V43.2307C40.7231 44.2475 41.5473 45.0716 42.564 45.0716C43.5807 45.0716 44.4049 44.2475 44.4049 43.2307V41.6387C44.4049 41.1382 44.6895 40.6933 45.1298 40.5053C46.3094 40.0031 47.3152 39.1647 48.0217 38.0947C48.7281 37.0247 49.1041 35.7705 49.1026 34.4883C49.1026 34.4633 49.1021 34.4384 49.1011 34.4137Z" fill="#FFB207"/>
<path d="M42.5558 51.0549C43.5725 51.0549 44.3967 50.2307 44.3967 49.214C44.3967 48.1972 43.5725 47.373 42.5558 47.373C41.539 47.373 40.7148 48.1972 40.7148 49.214C40.7148 50.2307 41.539 51.0549 42.5558 51.0549Z" fill="#FFB207"/>
<path d="M15.2179 37.6164C16.2346 37.6164 17.0588 36.7922 17.0588 35.7755C17.0588 34.7588 16.2346 33.9346 15.2179 33.9346C14.2012 33.9346 13.377 34.7588 13.377 35.7755C13.377 36.7922 14.2012 37.6164 15.2179 37.6164Z" fill="#FFB207"/>
</svg>
