<svg width="26" height="27" viewBox="0 0 26 27" fill="none" xmlns="http://www.w3.org/2000/svg">
<path d="M8.84028 18H17.7483C20.0943 18 21.0293 16.5635 21.1398 14.8125L21.5818 7.7915C21.7008 5.9555 20.2388 4.4 18.3943 4.4C17.8758 4.4 17.3998 4.1025 17.1618 3.6435L16.5498 2.411C16.1588 1.6375 15.1388 1 14.2718 1H12.3253C11.4498 1 10.4298 1.6375 10.0388 2.411L9.42678 3.6435C9.18878 4.1025 8.71278 4.4 8.19428 4.4C6.34978 4.4 4.88778 5.9555 5.00678 7.7915L5.44878 14.8125C5.55078 16.5635 6.49428 18 8.84028 18Z" stroke="white" stroke-width="1.5" stroke-linecap="round" stroke-linejoin="round"/>
<path d="M12.0176 6.09961H14.5676" stroke="white" stroke-width="1.5" stroke-linecap="round" stroke-linejoin="round"/>
<path d="M13.2957 14.5992C14.8172 14.5992 16.0582 13.3582 16.0582 11.8367C16.0582 10.3152 14.8172 9.07422 13.2957 9.07422C11.7742 9.07422 10.5332 10.3152 10.5332 11.8367C10.5332 13.3582 11.7742 14.5992 13.2957 14.5992Z" stroke="white" stroke-width="1.5" stroke-linecap="round" stroke-linejoin="round"/>
<path d="M2.69706 17.0644C3.00876 16.7916 3.0403 16.3178 2.76751 16.0061C2.49471 15.6944 2.02089 15.6628 1.70919 15.9356L2.69706 17.0644ZM13.2769 23.1446L13.7454 23.7302C13.912 23.5969 14.0139 23.399 14.0257 23.186C14.0375 22.973 13.958 22.7651 13.8072 22.6142L13.2769 23.1446ZM11.5923 20.3994C11.2994 20.1065 10.8246 20.1065 10.5317 20.3994C10.2388 20.6923 10.2388 21.1671 10.5317 21.46L11.5923 20.3994ZM10.0398 24.7738C9.71632 25.0325 9.66388 25.5045 9.92264 25.8279C10.1814 26.1514 10.6534 26.2038 10.9768 25.9451L10.0398 24.7738ZM1.70919 15.9356C0.48069 17.0108 -0.0318705 18.2132 0.397904 19.4242C0.783715 20.5114 1.85653 21.3346 3.03656 21.9425C5.44618 23.1839 9.02897 23.8946 11.6162 23.8946V22.3946C9.21992 22.3946 5.88176 21.7209 3.72353 20.6091C2.61963 20.0403 1.99679 19.4446 1.81153 18.9226C1.67023 18.5244 1.71117 17.9272 2.69706 17.0644L1.70919 15.9356ZM11.6162 23.8946H13.2769V22.3946H11.6162V23.8946ZM13.8072 22.6142L11.5923 20.3994L10.5317 21.46L12.7465 23.6749L13.8072 22.6142ZM12.8083 22.5589L10.0398 24.7738L10.9768 25.9451L13.7454 23.7302L12.8083 22.5589Z" fill="white"/>
<path d="M23.7969 16.5C27.199 19.4775 22.7602 21.8015 18.2603 22.719" stroke="white" stroke-width="1.5" stroke-linecap="round"/>
</svg>
