<svg width="30" height="30" viewBox="0 0 30 30" fill="none" xmlns="http://www.w3.org/2000/svg">
<path fill-rule="evenodd" clip-rule="evenodd" d="M14.0625 6.5625C12.4463 6.5625 10.8964 7.20452 9.75357 8.34732C8.61077 9.49012 7.96875 11.0401 7.96875 12.6562C7.96875 14.2724 8.61077 15.8224 9.75357 16.9652C10.8964 18.108 12.4463 18.75 14.0625 18.75C15.6787 18.75 17.2286 18.108 18.3714 16.9652C19.5142 15.8224 20.1563 14.2724 20.1562 12.6562C20.1563 11.0401 19.5142 9.49012 18.3714 8.34732C17.2286 7.20452 15.6787 6.5625 14.0625 6.5625ZM6.09375 12.6562C6.09375 10.5428 6.93331 8.51592 8.42774 7.02149C9.92217 5.52706 11.9491 4.6875 14.0625 4.6875C16.1759 4.6875 18.2028 5.52706 19.6973 7.02149C21.1917 8.51592 22.0312 10.5428 22.0312 12.6562C22.0313 14.7697 21.1917 16.7966 19.6973 18.291C18.2028 19.7854 16.1759 20.625 14.0625 20.625C11.9491 20.625 9.92217 19.7854 8.42774 18.291C6.93331 16.7966 6.09375 14.7697 6.09375 12.6562Z" fill="#0C0C0C"/>
<path fill-rule="evenodd" clip-rule="evenodd" d="M14.0625 18.75C14.3111 18.75 14.5496 18.8488 14.7254 19.0246C14.9012 19.2004 15 19.4389 15 19.6875V27.1875C15 27.4361 14.9012 27.6746 14.7254 27.8504C14.5496 28.0262 14.3111 28.125 14.0625 28.125C13.8139 28.125 13.5754 28.0262 13.3996 27.8504C13.2238 27.6746 13.125 27.4361 13.125 27.1875V19.6875C13.125 19.4389 13.2238 19.2004 13.3996 19.0246C13.5754 18.8488 13.8139 18.75 14.0625 18.75Z" fill="#0C0C0C"/>
<path fill-rule="evenodd" clip-rule="evenodd" d="M9.375 23.9062C9.375 23.6576 9.47377 23.4192 9.64959 23.2433C9.8254 23.0675 10.0639 22.9688 10.3125 22.9688H17.8125C18.0611 22.9688 18.2996 23.0675 18.4754 23.2433C18.6512 23.4192 18.75 23.6576 18.75 23.9062C18.75 24.1549 18.6512 24.3933 18.4754 24.5692C18.2996 24.745 18.0611 24.8438 17.8125 24.8438H10.3125C10.0639 24.8438 9.8254 24.745 9.64959 24.5692C9.47377 24.3933 9.375 24.1549 9.375 23.9062ZM18.75 2.8125C18.75 2.56386 18.8488 2.3254 19.0246 2.14959C19.2004 1.97377 19.4389 1.875 19.6875 1.875H24.375C24.6236 1.875 24.8621 1.97377 25.0379 2.14959C25.2137 2.3254 25.3125 2.56386 25.3125 2.8125V7.5C25.3125 7.74864 25.2137 7.9871 25.0379 8.16291C24.8621 8.33873 24.6236 8.4375 24.375 8.4375C24.1264 8.4375 23.8879 8.33873 23.7121 8.16291C23.5363 7.9871 23.4375 7.74864 23.4375 7.5V3.75H19.6875C19.4389 3.75 19.2004 3.65123 19.0246 3.47541C18.8488 3.2996 18.75 3.06114 18.75 2.8125Z" fill="#0C0C0C"/>
<path fill-rule="evenodd" clip-rule="evenodd" d="M25.0376 2.14949C25.2134 2.32529 25.3121 2.56371 25.3121 2.8123C25.3121 3.06089 25.2134 3.29931 25.0376 3.47511L19.9282 8.58449C19.8418 8.67403 19.7383 8.74545 19.6239 8.79458C19.5096 8.84372 19.3865 8.86958 19.2621 8.87066C19.1376 8.87174 19.0141 8.84802 18.8989 8.80088C18.7837 8.75374 18.679 8.68413 18.591 8.59611C18.503 8.50808 18.4334 8.40341 18.3862 8.28819C18.3391 8.17298 18.3154 8.04953 18.3164 7.92505C18.3175 7.80057 18.3434 7.67755 18.3925 7.56317C18.4417 7.44879 18.5131 7.34534 18.6026 7.25886L23.712 2.14949C23.8878 1.97373 24.1262 1.875 24.3748 1.875C24.6234 1.875 24.8618 1.97373 25.0376 2.14949Z" fill="#0C0C0C"/>
</svg>
