<?xml version="1.0" encoding="utf-8"?><!-- Uploaded to: SVG Repo, www.svgrepo.com, Generator: SVG Repo Mixer Tools -->
<svg width="800px" height="800px" viewBox="0 0 24 24" fill="none" xmlns="http://www.w3.org/2000/svg">
<path d="M9.17154 2.41423C9.56206 2.02371 10.1952 2.02371 10.5857 2.41423L12 3.82844L13.4142 2.41423C13.8047 2.02371 14.4379 2.02371 14.8284 2.41423C15.2189 2.80476 15.2189 3.43792 14.8284 3.82844L13.4142 5.24266L14.8284 6.65687C15.2189 7.0474 15.2189 7.68056 14.8284 8.07108C14.4379 8.46161 13.8047 8.46161 13.4142 8.07108L12 6.65687L10.5857 8.07108C10.1952 8.46161 9.56206 8.46161 9.17154 8.07108C8.78101 7.68056 8.78101 7.0474 9.17154 6.65687L10.5857 5.24266L9.17154 3.82844C8.78101 3.43792 8.78101 2.80476 9.17154 2.41423Z" fill="#000000"/>
<path d="M8.02542 4.398C7.53515 5.14538 7.25 6.03938 7.25 6.99998V11C7.25 13.6233 9.37665 15.75 12 15.75C14.6234 15.75 16.75 13.6233 16.75 11V6.99998C16.75 6.03935 16.4648 5.14532 15.9745 4.39793C15.8981 4.50856 15.8107 4.61387 15.7123 4.71233L15.1819 5.24266L15.7123 5.77299C16.5909 6.65167 16.5909 8.07629 15.7123 8.95497C14.8336 9.83365 13.409 9.83365 12.5303 8.95497L12 8.42464L11.4696 8.95497C10.5909 9.83365 9.16632 9.83365 8.28764 8.95497C7.40896 8.07629 7.40896 6.65167 8.28764 5.77299L8.81797 5.24266L8.28764 4.71233C8.18921 4.61389 8.1018 4.50861 8.02542 4.398Z" fill="#000000"/>
<path d="M5.75 9.99998C5.75 9.58577 5.41421 9.24998 5 9.24998C4.58579 9.24998 4.25 9.58577 4.25 9.99998V11C4.25 15.0272 7.3217 18.3369 11.25 18.7142V21C11.25 21.4142 11.5858 21.75 12 21.75C12.4142 21.75 12.75 21.4142 12.75 21V18.7142C16.6783 18.3369 19.75 15.0272 19.75 11V9.99998C19.75 9.58577 19.4142 9.24998 19 9.24998C18.5858 9.24998 18.25 9.58577 18.25 9.99998V11C18.25 14.4518 15.4518 17.25 12 17.25C8.54822 17.25 5.75 14.4518 5.75 11V9.99998Z" fill="#000000"/>
</svg>