<svg width="1024" height="1024" viewBox="0 0 1024 1024" fill="none" xmlns="http://www.w3.org/2000/svg">
<rect width="1024" height="1024" rx="200" fill="#2C3639"/>
<path fill-rule="evenodd" clip-rule="evenodd" d="M587.448 850.141C726.351 710.278 847 588.795 847 431.845C847 246.915 697.015 97 512 97C326.985 97 177 246.915 177 431.845C177 599.235 292.259 711.938 458.231 874.231C475.622 891.236 493.57 908.786 512 927C537.343 900.593 562.686 875.075 587.448 850.141ZM512 727C674.924 727 807 594.924 807 432C807 269.076 674.924 137 512 137C349.076 137 217 269.076 217 432C217 594.924 349.076 727 512 727Z" fill="white"/>
<g filter="url(#filter0_i_592_15173)">
<g clip-path="url(#clip0_592_15173)">
<rect x="217" y="137" width="590" height="590" rx="295" fill="#2C3639"/>
<g clip-path="url(#clip1_592_15173)">
<path d="M445.021 331.232C461.677 314.576 461.677 287.571 445.021 270.915C428.365 254.259 401.36 254.259 384.704 270.915C368.048 287.571 368.048 314.576 384.704 331.232C401.36 347.888 428.365 347.888 445.021 331.232Z" fill="white"/>
<path d="M640.654 331.249C657.31 314.593 657.31 287.588 640.654 270.932C623.998 254.276 596.993 254.276 580.337 270.932C563.681 287.588 563.681 314.593 580.337 331.249C596.993 347.905 623.998 347.905 640.654 331.249Z" fill="white"/>
<path d="M578.131 287.681C584.215 251.154 559.536 216.612 523.01 210.528C486.484 204.444 451.942 229.122 445.858 265.649C439.774 302.175 464.452 336.717 500.978 342.801C537.504 348.885 572.047 324.207 578.131 287.681Z" fill="white"/>
<path d="M444.929 289.498C464.076 289.498 479.597 273.976 479.597 254.83C479.597 235.683 464.076 220.162 444.929 220.162C425.783 220.162 410.262 235.683 410.262 254.83C410.262 273.976 425.783 289.498 444.929 289.498Z" fill="white"/>
<path d="M585.079 295.822C604.225 295.822 619.747 280.3 619.747 261.154C619.747 242.007 604.225 226.486 585.079 226.486C565.932 226.486 550.411 242.007 550.411 261.154C550.411 280.3 565.932 295.822 585.079 295.822Z" fill="white"/>
<path d="M372.14 302.683C341.016 332.418 322 378.567 322 446.647C322 551.592 407.077 636.669 512.022 636.669C616.967 636.669 702.045 551.592 702.045 446.647C702.045 378.073 683.522 332.194 653.115 302.683H372.14Z" fill="white"/>
<path d="M466.411 792.83C473.452 785.117 477.937 777.403 481.839 769.689C485.651 761.975 488.521 754.261 490.584 746.547C494.755 731.119 495.742 715.691 494.98 700.264C494.262 684.836 492.02 669.408 487.669 653.98C485.517 646.266 482.781 638.552 479.417 630.838C476.009 623.124 472.062 615.41 466.456 607.697H557.633C552.027 615.41 548.08 623.124 544.671 630.838C541.308 638.552 538.572 646.266 536.419 653.98C532.069 669.408 529.827 684.836 529.109 700.264C528.302 715.691 529.333 731.119 533.504 746.547C535.567 754.261 538.438 761.975 542.25 769.689C546.107 777.403 550.636 785.117 557.678 792.83H466.411Z" fill="white"/>
<path d="M512.021 618.729C417.122 618.729 339.938 541.5 339.938 446.646C339.938 391.348 353.303 349.011 379.674 320.622H645.535C671.143 348.742 684.104 391.124 684.104 446.646C684.059 541.5 606.875 618.729 512.021 618.729Z" fill="#FFB207"/>
<path opacity="0.15" d="M512.021 597.112C420.217 597.112 345.006 524.906 340.207 434.313C340.028 438.349 339.938 442.43 339.938 446.646C339.938 541.5 417.122 618.729 512.021 618.729C606.875 618.729 684.104 541.545 684.104 446.646C684.104 442.43 684.014 438.304 683.835 434.223C679.036 524.862 603.781 597.112 512.021 597.112Z" fill="#511418"/>
<path opacity="0.15" d="M512.022 320.622V618.729C606.877 618.729 684.106 541.545 684.106 446.646C684.106 391.079 671.144 348.742 645.536 320.622H512.022Z" fill="#511418"/>
<path d="M585.08 301.069C577.994 301.069 572.164 306.854 572.164 313.985V308.693C572.164 301.607 566.378 295.777 559.248 295.777C552.161 295.777 546.331 301.562 546.331 308.693V279.721C546.331 272.635 540.546 266.805 533.415 266.805C526.329 266.805 520.499 272.59 520.499 279.721V363.812C520.499 370.898 526.284 376.728 533.415 376.728C540.501 376.728 546.331 370.943 546.331 363.812V360.538C546.331 353.452 552.117 347.621 559.248 347.621C566.334 347.621 572.164 353.407 572.164 360.538V398.031C572.164 405.117 577.949 410.947 585.08 410.947C592.166 410.947 597.996 405.162 597.996 398.031V313.985C597.952 306.899 592.166 301.069 585.08 301.069Z" fill="white"/>
</g>
</g>
<rect x="202.775" y="122.775" width="618.451" height="618.451" rx="309.225" stroke="white" stroke-width="28.4509"/>
</g>
<defs>
<filter id="filter0_i_592_15173" x="188.549" y="108.549" width="646.902" height="650.902" filterUnits="userSpaceOnUse" color-interpolation-filters="sRGB">
<feFlood flood-opacity="0" result="BackgroundImageFix"/>
<feBlend mode="normal" in="SourceGraphic" in2="BackgroundImageFix" result="shape"/>
<feColorMatrix in="SourceAlpha" type="matrix" values="0 0 0 0 0 0 0 0 0 0 0 0 0 0 0 0 0 0 127 0" result="hardAlpha"/>
<feOffset dy="4"/>
<feGaussianBlur stdDeviation="8"/>
<feComposite in2="hardAlpha" operator="arithmetic" k2="-1" k3="1"/>
<feColorMatrix type="matrix" values="0 0 0 0 0 0 0 0 0 0 0 0 0 0 0 0 0 0 0.4 0"/>
<feBlend mode="normal" in2="shape" result="effect1_innerShadow_592_15173"/>
</filter>
<clipPath id="clip0_592_15173">
<rect x="217" y="137" width="590" height="590" rx="295" fill="white"/>
</clipPath>
<clipPath id="clip1_592_15173">
<rect width="380" height="617.607" fill="white" transform="translate(322 209.623)"/>
</clipPath>
</defs>
</svg>
