<svg width="24" height="24" viewBox="0 0 24 24" fill="none" xmlns="http://www.w3.org/2000/svg">
<path d="M8.48438 15.9375V21.7031C8.48438 22.2209 8.06466 22.6406 7.54688 22.6406C7.02909 22.6406 6.60938 22.2209 6.60938 21.7031V15.9375C6.60938 15.4206 6.18881 15 5.67188 15H1.875V21.7031C1.875 22.2209 1.45528 22.6406 0.9375 22.6406C0.419719 22.6406 0 22.2209 0 21.7031V2.29688C0 1.77909 0.419719 1.35938 0.9375 1.35938C1.45528 1.35938 1.875 1.77909 1.875 2.29688V13.125H5.67188C7.22269 13.125 8.48438 14.3867 8.48438 15.9375ZM23.0625 1.35938C22.5447 1.35938 22.125 1.77909 22.125 2.29688V13.125H18.3281C16.7773 13.125 15.5156 14.3867 15.5156 15.9375V21.7031C15.5156 22.2209 15.9353 22.6406 16.4531 22.6406C16.9709 22.6406 17.3906 22.2209 17.3906 21.7031V15.9375C17.3906 15.4206 17.8112 15 18.3281 15H22.125V21.7031C22.125 22.2209 22.5447 22.6406 23.0625 22.6406C23.5803 22.6406 24 22.2209 24 21.7031V2.29688C24 1.77909 23.5803 1.35938 23.0625 1.35938ZM12.9375 13.0956V21.7031C12.9375 22.2209 12.5178 22.6406 12 22.6406C11.4822 22.6406 11.0625 22.2209 11.0625 21.7031V13.1011C6.86297 12.8745 4.77427 11.1004 4.68169 11.02C4.53165 10.8895 4.42698 10.7147 4.38281 10.5208C4.33864 10.3269 4.35726 10.124 4.43597 9.94144L5.11955 8.35552C5.33679 7.85079 5.69723 7.42083 6.15629 7.11882C6.61534 6.81681 7.15287 6.656 7.70236 6.6563H16.2311C17.3731 6.6563 18.3932 7.33819 18.8298 8.39348L19.4756 9.95409C19.5508 10.1357 19.5669 10.3363 19.5219 10.5275C19.4768 10.7188 19.3728 10.8911 19.2246 11.02C19.1327 11.0998 17.0742 12.8477 12.9375 13.0956ZM6.46584 9.96895C7.31423 10.4552 9.13261 11.25 11.9531 11.25C14.7845 11.25 16.6061 10.449 17.4503 9.96333L17.0973 9.11034C17.0267 8.93873 16.9066 8.79201 16.7524 8.68888C16.5981 8.58575 16.4166 8.53087 16.2311 8.53125H7.70231C7.51914 8.53115 7.33996 8.58476 7.18694 8.68543C7.03392 8.78611 6.91377 8.92944 6.84136 9.09769L6.46584 9.96895Z" fill="#717C88"/>
</svg>
