<svg width="24" height="24" viewBox="0 0 24 24" fill="none" xmlns="http://www.w3.org/2000/svg">
<path d="M18.3207 1.9155C17.2287 0.645 15.3222 0 12.6582 0H5.9802C5.1342 0 4.4262 0.6135 4.2942 1.4595L1.5132 19.4595C1.4547 19.848 1.5672 20.241 1.8222 20.538C1.94559 20.6828 2.09895 20.7992 2.27169 20.8789C2.44443 20.9587 2.63243 21 2.8227 21H7.5882L8.6907 13.857C8.7132 13.7565 8.7957 13.6845 8.8887 13.6845H10.8477C15.6087 13.6845 18.4632 11.3895 19.3257 6.8655L19.4022 6.432C19.6872 4.4775 19.3647 3.1275 18.3207 1.9155ZM17.9202 6.198L17.8527 6.5805C17.1342 10.35 14.8437 12.183 10.8492 12.183H8.8902C8.1177 12.183 7.4592 12.6975 7.2522 13.4325L7.2402 13.4295L7.2087 13.635C7.2072 13.6365 7.2072 13.638 7.2072 13.641L6.3027 19.5H3.0252L5.7762 1.689C5.7927 1.5795 5.8782 1.5 5.9802 1.5H12.6567C14.8647 1.5 16.3887 1.968 17.1852 2.8935C17.9352 3.765 18.1392 4.6965 17.9202 6.198Z" fill="#FFB207"/>
<path d="M10.2051 16.6478L10.2352 16.4385L11.7199 16.6522L11.6898 16.8616L10.2051 16.6478Z" fill="#FFB207"/>
<path d="M21.3225 4.90625C20.7315 4.22825 19.8975 3.72275 18.843 3.40625L18.4125 4.84325C19.191 5.07725 19.7895 5.42975 20.1885 5.88875C20.931 6.75275 21.141 7.71275 20.919 9.19025C20.919 9.19025 20.8785 9.43175 20.8455 9.58025C20.1345 13.3483 17.8455 15.1798 13.8435 15.1798H11.8935C11.0535 15.1798 10.344 15.7917 10.2075 16.6407L9.30152 22.4998H6.01952L6.34952 20.3638L4.86752 20.1357L4.50452 22.4818C4.45652 22.8717 4.57652 23.2617 4.83302 23.5527C5.08502 23.8377 5.44352 23.9998 5.81852 23.9998H10.587L11.688 16.8748C11.7045 16.7773 11.7795 16.6798 11.8935 16.6798H13.8435C18.615 16.6798 21.4665 14.3848 22.3125 9.88625C22.347 9.73775 22.398 9.43925 22.3995 9.42575C22.689 7.50425 22.3575 6.11225 21.3225 4.90625Z" fill="#FFB207"/>
</svg>
