<svg width="24" height="24" viewBox="0 0 24 24" fill="none" xmlns="http://www.w3.org/2000/svg">
<path d="M21 21.25H20.75V8C20.75 4.28 17.72 1.25 14 1.25H10C6.28 1.25 3.25 4.28 3.25 8V21.25H3C2.59 21.25 2.25 21.59 2.25 22C2.25 22.41 2.59 22.75 3 22.75H21C21.41 22.75 21.75 22.41 21.75 22C21.75 21.59 21.41 21.25 21 21.25ZM10 2.75H14C16.89 2.75 19.25 5.1 19.25 8V9.25H4.75V8C4.75 5.1 7.1 2.75 10 2.75ZM4.75 21.25V10.75H19.25V21.25H4.75ZM8.25 6C8.25 5.59 8.59 5.25 9 5.25H15C15.41 5.25 15.75 5.59 15.75 6C15.75 6.41 15.41 6.75 15 6.75H9C8.59 6.75 8.25 6.41 8.25 6ZM15.5 13.25H8.5C7.81 13.25 7.25 13.81 7.25 14.5V17.5C7.25 18.19 7.81 18.75 8.5 18.75H15.5C16.19 18.75 16.75 18.19 16.75 17.5V14.5C16.75 13.81 16.19 13.25 15.5 13.25ZM15.25 17.25H8.75V14.75H15.25V17.25Z" fill="#717C88"/>
</svg>
