<svg width="24" height="24" viewBox="0 0 24 24" fill="none" xmlns="http://www.w3.org/2000/svg">
<path d="M12 22.607C11.7024 22.6067 11.4098 22.5303 11.15 22.385L7.78 20.513C6.10454 19.5815 4.70845 18.2192 3.73619 16.567C2.76393 14.9149 2.25083 13.033 2.25 11.116V5.91998C2.24995 5.4876 2.41024 5.07057 2.69988 4.74954C2.98951 4.4285 3.3879 4.22628 3.818 4.18198C5.15883 4.03986 6.47845 3.7415 7.75 3.29298C8.91583 2.88087 10.0342 2.34515 11.086 1.69498C11.3611 1.5266 11.6774 1.4375 12 1.4375C12.3226 1.4375 12.6389 1.5266 12.914 1.69498C13.9659 2.34497 15.0842 2.88068 16.25 3.29298C17.5216 3.7415 18.8412 4.03986 20.182 4.18198C20.6121 4.22628 21.0105 4.4285 21.3001 4.74954C21.5898 5.07057 21.75 5.4876 21.75 5.91998V11.116C21.7492 13.033 21.2361 14.9149 20.2638 16.567C19.2916 18.2192 17.8955 19.5815 16.22 20.513L12.85 22.386C12.5902 22.531 12.2976 22.6071 12 22.607ZM12 2.93698C11.956 2.93659 11.9127 2.94835 11.875 2.97098C10.732 3.67744 9.51675 4.25975 8.25 4.70798C6.86825 5.19566 5.43416 5.51987 3.977 5.67398C3.9151 5.67924 3.85743 5.70754 3.8154 5.75327C3.77337 5.79901 3.75003 5.85886 3.75 5.92098V11.117C3.75054 12.7665 4.19192 14.3859 5.02846 15.8076C5.865 17.2292 7.06629 18.4015 8.508 19.203L11.878 21.075C11.9149 21.0957 11.9566 21.1066 11.999 21.1066C12.0414 21.1066 12.0831 21.0957 12.12 21.075L15.492 19.203C16.9337 18.4015 18.135 17.2292 18.9715 15.8076C19.8081 14.3859 20.2495 12.7665 20.25 11.117V5.91998C20.25 5.85786 20.2266 5.79801 20.1846 5.75227C20.1426 5.70654 20.0849 5.67824 20.023 5.67298C18.5658 5.51887 17.1317 5.19466 15.75 4.70698C14.4833 4.25938 13.2681 3.67775 12.125 2.97198C12.0874 2.94881 12.0441 2.93668 12 2.93698Z" fill="#FFB207"/>
<path d="M11.5011 14.2502C11.3173 14.2504 11.14 14.1827 11.0031 14.0602L8.75307 12.0602C8.61356 11.9258 8.53147 11.7426 8.524 11.5491C8.51652 11.3555 8.58425 11.1665 8.71299 11.0217C8.84173 10.877 9.02149 10.7876 9.21463 10.7724C9.40776 10.7573 9.59928 10.8174 9.74907 10.9402L11.4531 12.4542L14.7041 8.98724C14.771 8.91373 14.8519 8.85426 14.942 8.81229C15.0321 8.77032 15.1297 8.74669 15.2291 8.74277C15.3284 8.73885 15.4275 8.75472 15.5207 8.78946C15.6138 8.8242 15.6992 8.87712 15.7717 8.94513C15.8442 9.01314 15.9025 9.09489 15.9431 9.18563C15.9837 9.27636 16.0059 9.37427 16.0084 9.47366C16.0109 9.57306 15.9935 9.67194 15.9574 9.76457C15.9213 9.85721 15.8671 9.94173 15.7981 10.0132L12.0481 14.0132C11.978 14.0882 11.8933 14.1479 11.7992 14.1887C11.7051 14.2294 11.6036 14.2504 11.5011 14.2502Z" fill="#FFB207"/>
</svg>
