<svg width="50" height="50" viewBox="0 0 50 50" fill="none" xmlns="http://www.w3.org/2000/svg">
<path d="M33.0078 35.7422C34.0865 35.7422 34.961 34.8678 34.961 33.7891C34.961 32.7104 34.0865 31.8359 33.0078 31.8359C31.9291 31.8359 31.0547 32.7104 31.0547 33.7891C31.0547 34.8678 31.9291 35.7422 33.0078 35.7422Z" fill="#FFB207"/>
<path d="M23.2422 46.0938H7.8125C5.65859 46.0938 3.90625 44.3414 3.90625 42.1875V26.1719C3.90625 24.018 5.65859 22.2656 7.8125 22.2656H35.9375C38.0914 22.2656 39.8438 24.018 39.8438 26.1719V30.0781C39.8438 31.1568 40.7182 32.0313 41.7969 32.0313C42.8756 32.0313 43.75 31.1568 43.75 30.0781V26.1719C43.75 21.8641 40.2453 18.3594 35.9375 18.3594H33.5901V11.4713C33.5901 5.146 28.3331 0 21.8714 0C15.4097 0 10.1526 5.146 10.1526 11.4713V18.3594H7.8125C3.50469 18.3594 0 21.8641 0 26.1719V42.1875C0 46.4953 3.50469 50 7.8125 50H23.2422C24.3209 50 25.1953 49.1256 25.1953 48.0469C25.1953 46.9682 24.3209 46.0938 23.2422 46.0938ZM14.0589 11.4713C14.0589 7.2999 17.5636 3.90625 21.8714 3.90625C26.1792 3.90625 29.6839 7.2999 29.6839 11.4713V18.3594H14.0589V11.4713Z" fill="#FFB207"/>
<path d="M49.184 31.8106C48.3068 31.1825 47.0866 31.3846 46.459 32.2617L36.8319 45.709C36.569 46.0139 36.2395 46.0797 36.0629 46.0915C35.8819 46.1035 35.5332 46.0805 35.2263 45.7925L29.0048 39.7211C28.2327 38.9676 26.9962 38.9829 26.2429 39.7548C25.4894 40.5268 25.5045 41.7633 26.2766 42.5167L32.509 48.5989C32.5149 48.6046 32.5206 48.6102 32.5266 48.6158C33.4609 49.5054 34.708 50.0002 35.9912 50.0002C36.1015 50.0002 36.212 49.9966 36.3226 49.9891C37.7204 49.896 39.0256 49.2162 39.9033 48.1242C39.9259 48.0959 39.9478 48.0671 39.969 48.0376L49.6351 34.5356C50.263 33.6585 50.061 32.4384 49.184 31.8106Z" fill="#FFB207"/>
<path d="M25.5859 35.7422C26.6646 35.7422 27.5391 34.8678 27.5391 33.7891C27.5391 32.7104 26.6646 31.8359 25.5859 31.8359C24.5073 31.8359 23.6328 32.7104 23.6328 33.7891C23.6328 34.8678 24.5073 35.7422 25.5859 35.7422Z" fill="#FFB207"/>
<path d="M10.9375 35.7422C12.0162 35.7422 12.8906 34.8678 12.8906 33.7891C12.8906 32.7104 12.0162 31.8359 10.9375 31.8359C9.85882 31.8359 8.98438 32.7104 8.98438 33.7891C8.98438 34.8678 9.85882 35.7422 10.9375 35.7422Z" fill="#FFB207"/>
<path d="M18.2617 35.7422C19.3404 35.7422 20.2149 34.8678 20.2149 33.7891C20.2149 32.7104 19.3404 31.8359 18.2617 31.8359C17.183 31.8359 16.3086 32.7104 16.3086 33.7891C16.3086 34.8678 17.183 35.7422 18.2617 35.7422Z" fill="#FFB207"/>
</svg>
