<svg width="24" height="24" viewBox="0 0 24 24" fill="none" xmlns="http://www.w3.org/2000/svg">
<path d="M14.2209 21.6293C13.0409 21.6293 11.3709 20.7993 10.0509 16.8293L9.33086 14.6693L7.17086 13.9493C3.21086 12.6293 2.38086 10.9593 2.38086 9.77934C2.38086 8.60934 3.21086 6.92934 7.17086 5.59934L15.6609 2.76934C17.7809 2.05934 19.5509 2.26934 20.6409 3.34934C21.7309 4.42934 21.9409 6.20934 21.2309 8.32934L18.4009 16.8193C17.0709 20.7993 15.4009 21.6293 14.2209 21.6293ZM7.64086 7.02934C4.86086 7.95934 3.87086 9.05934 3.87086 9.77934C3.87086 10.4993 4.86086 11.5993 7.64086 12.5193L10.1609 13.3593C10.3809 13.4293 10.5609 13.6093 10.6309 13.8293L11.4709 16.3493C12.3909 19.1293 13.5009 20.1193 14.2209 20.1193C14.9409 20.1193 16.0409 19.1293 16.9709 16.3493L19.8009 7.85934C20.3109 6.31934 20.2209 5.05934 19.5709 4.40934C18.9209 3.75934 17.6609 3.67934 16.1309 4.18934L7.64086 7.02934Z" fill="#0C0C0C"/>
<path d="M10.111 14.399C9.92098 14.399 9.73098 14.329 9.58098 14.179C9.4415 14.0379 9.36328 13.8475 9.36328 13.649C9.36328 13.4506 9.4415 13.2602 9.58098 13.119L13.161 9.52902C13.451 9.23902 13.931 9.23902 14.221 9.52902C14.511 9.81902 14.511 10.299 14.221 10.589L10.641 14.179C10.501 14.329 10.301 14.399 10.111 14.399Z" fill="#0C0C0C"/>
</svg>
