<svg width="16" height="17" viewBox="0 0 16 17" fill="none" xmlns="http://www.w3.org/2000/svg">
<path d="M12.9997 8.83366C12.9997 7.91366 13.7463 7.16699 14.6663 7.16699V6.50033C14.6663 3.83366 13.9997 3.16699 11.333 3.16699H4.66634C1.99967 3.16699 1.33301 3.83366 1.33301 6.50033V6.83366C2.25301 6.83366 2.99967 7.58033 2.99967 8.50033C2.99967 9.42033 2.25301 10.167 1.33301 10.167V10.5003C1.33301 13.167 1.99967 13.8337 4.66634 13.8337H11.333C13.9997 13.8337 14.6663 13.167 14.6663 10.5003C13.7463 10.5003 12.9997 9.75366 12.9997 8.83366Z" stroke="#FFB207" stroke-linecap="round" stroke-linejoin="round"/>
<path d="M6.66699 3.16699L6.66699 13.8337" stroke="#FFB207" stroke-linecap="round" stroke-linejoin="round" stroke-dasharray="3.33 3.33"/>
</svg>
