<svg width="55" height="54" viewBox="0 0 55 54" fill="none" xmlns="http://www.w3.org/2000/svg">
<path d="M44.1556 23.4731C43.8084 22.6242 43.3425 21.8287 42.7719 21.1106C44.1395 19.4352 44.9059 17.3498 44.9488 15.1875C44.9488 7.61737 35.5494 1.6875 23.5513 1.6875C11.57 1.6875 2.1875 7.61737 2.1875 15.1875C2.22042 17.3418 2.9657 19.4245 4.307 21.1106C2.96799 22.785 2.22252 24.8564 2.1875 27C2.22385 29.1514 2.97551 31.2294 4.32388 32.9062C2.97551 34.5831 2.22385 36.6611 2.1875 38.8125C2.1875 46.3826 11.57 52.3125 23.5513 52.3125C26.3974 52.3002 29.2303 51.9259 31.982 51.1987C35.6377 52.6905 39.7315 52.6959 43.3911 51.2136C47.0508 49.7314 49.987 46.8787 51.5742 43.2634C53.1614 39.648 53.2741 35.5558 51.8884 31.8586C50.5027 28.1613 47.7281 25.1547 44.1556 23.4731ZM23.5513 5.0625C33.3185 5.0625 41.5738 9.69975 41.5738 15.1875C41.4984 16.9941 40.7094 18.697 39.38 19.9226C38.5779 20.7386 37.6738 21.4476 36.6901 22.032C33.8351 22.197 31.0863 23.1722 28.7656 24.8434C27.0462 25.1642 25.3003 25.3213 23.5513 25.3125C13.7975 25.3125 5.5625 20.6752 5.5625 15.1875C5.5625 9.69975 13.7975 5.0625 23.5513 5.0625ZM22.4409 37.0811C17.0429 37.149 11.8057 35.2445 7.71238 31.725C6.39764 30.4973 5.62433 28.7977 5.5625 27C5.58567 25.764 5.97697 24.5631 6.68638 23.5507C11.5796 27.0924 17.5146 28.9001 23.5513 28.6875C24.0676 28.6875 24.5469 28.6436 25.0498 28.62C23.354 31.1162 22.4453 34.0634 22.4409 37.0811ZM23.5513 48.9375C13.7975 48.9375 5.5625 44.3002 5.5625 38.8125C5.58555 37.5671 5.98176 36.3573 6.69988 35.3396C11.3858 38.7424 17.0451 40.5416 22.8358 40.4696C23.5723 43.6567 25.3226 46.5191 27.824 48.627C26.4088 48.8302 24.981 48.9339 23.5513 48.9375ZM37.625 48.9375C36.0343 48.9382 34.4601 48.6155 32.9979 47.9891L32.9506 47.9621C30.4669 46.8952 28.4249 45.0076 27.1665 42.6151C25.9081 40.2226 25.5097 37.4705 26.0379 34.8194C26.566 32.1683 27.9888 29.779 30.068 28.0515C32.1471 26.3239 34.7566 25.3629 37.4596 25.3294L37.5204 25.3226C37.5575 25.3226 37.5879 25.3125 37.6216 25.3125C40.7545 25.3125 43.7591 26.557 45.9743 28.7723C48.1896 30.9876 49.4341 33.9921 49.4341 37.125C49.4341 40.2579 48.1896 43.2624 45.9743 45.4777C43.7591 47.693 40.7545 48.9375 37.6216 48.9375H37.625Z" fill="#FFB207"/>
<path d="M42.6875 35.4375H39.3125V32.0625C39.3125 31.6149 39.1347 31.1857 38.8182 30.8693C38.5018 30.5528 38.0726 30.375 37.625 30.375C37.1774 30.375 36.7482 30.5528 36.4318 30.8693C36.1153 31.1857 35.9375 31.6149 35.9375 32.0625V35.4375H32.5625C32.1149 35.4375 31.6857 35.6153 31.3693 35.9318C31.0528 36.2482 30.875 36.6774 30.875 37.125C30.875 37.5726 31.0528 38.0018 31.3693 38.3182C31.6857 38.6347 32.1149 38.8125 32.5625 38.8125H35.9375V42.1875C35.9375 42.6351 36.1153 43.0643 36.4318 43.3807C36.7482 43.6972 37.1774 43.875 37.625 43.875C38.0726 43.875 38.5018 43.6972 38.8182 43.3807C39.1347 43.0643 39.3125 42.6351 39.3125 42.1875V38.8125H42.6875C43.1351 38.8125 43.5643 38.6347 43.8807 38.3182C44.1972 38.0018 44.375 37.5726 44.375 37.125C44.375 36.6774 44.1972 36.2482 43.8807 35.9318C43.5643 35.6153 43.1351 35.4375 42.6875 35.4375Z" fill="#FFB207"/>
</svg>
