<svg width="55" height="54" viewBox="0 0 55 54" fill="none" xmlns="http://www.w3.org/2000/svg">
<path d="M19.3545 26.9997L24.777 32.4447L35.6445 21.5547" stroke="#FFB207" stroke-width="3.375" stroke-linecap="round" stroke-linejoin="round"/>
<path d="M24.687 5.5132C26.2395 4.1857 28.782 4.1857 30.357 5.5132L33.912 8.5732C34.587 9.1582 35.847 9.6307 36.747 9.6307H40.572C42.957 9.6307 44.9145 11.5882 44.9145 13.9732V17.7982C44.9145 18.6757 45.387 19.9582 45.972 20.6332L49.032 24.1882C50.3595 25.7407 50.3595 28.2832 49.032 29.8582L45.972 33.4132C45.387 34.0882 44.9145 35.3482 44.9145 36.2482V40.0732C44.9145 42.4582 42.957 44.4157 40.572 44.4157H36.747C35.8695 44.4157 34.587 44.8882 33.912 45.4732L30.357 48.5332C28.8045 49.8607 26.262 49.8607 24.687 48.5332L21.132 45.4732C20.457 44.8882 19.197 44.4157 18.297 44.4157H14.4045C12.0195 44.4157 10.062 42.4582 10.062 40.0732V36.2257C10.062 35.3482 9.58949 34.0882 9.02699 33.4132L5.98949 29.8357C4.68449 28.2832 4.68449 25.7632 5.98949 24.2107L9.02699 20.6332C9.58949 19.9582 10.062 18.6982 10.062 17.8207V13.9507C10.062 11.5657 12.0195 9.6082 14.4045 9.6082H18.297C19.1745 9.6082 20.457 9.1357 21.132 8.5507L24.687 5.5132Z" stroke="#FFB207" stroke-width="3.375" stroke-linecap="round" stroke-linejoin="round"/>
</svg>
