<svg width="335" height="230" viewBox="0 0 335 230" fill="none" xmlns="http://www.w3.org/2000/svg">
<g clip-path="url(#clip0_275_8168)">
<rect width="335" height="230" rx="24" fill="#FFB207"/>
<path d="M119.381 -256.959C140.508 -281.942 176.912 -287.327 204.367 -269.53L414.062 -133.607C445.416 -113.284 453.222 -70.7733 431.133 -40.6371L334.828 90.7518C314.723 118.182 276.871 125.477 248.011 107.482L25.7582 -31.1005C-7.86335 -52.0647 -15.067 -97.9748 10.518 -128.229L119.381 -256.959Z" fill="#0C0C0C" fill-opacity="0.02"/>
<path d="M119.762 -256.636C140.727 -281.427 176.851 -286.77 204.096 -269.111L413.79 -133.188C444.903 -113.02 452.648 -70.8371 430.729 -40.9327L334.425 90.4563C314.474 117.676 276.913 124.914 248.276 107.057L26.0228 -31.5248C-7.34017 -52.3277 -14.4884 -97.8847 10.8998 -127.906L119.762 -256.636Z" stroke="#0C0C0C" stroke-opacity="0.08"/>
<path d="M124.609 -286.78C142.871 -308.374 174.701 -312.221 197.581 -295.599L398.818 -149.403C421.32 -133.056 427.724 -102.291 413.616 -78.3222L327.941 67.2281C312.539 93.3948 278.598 101.723 252.833 85.6577L15.6285 -62.2474C-12.3033 -79.6638 -18.2879 -117.804 2.96733 -142.939L124.609 -286.78Z" fill="#0C0C0C" fill-opacity="0.02"/>
<path d="M124.991 -286.457C143.084 -307.852 174.619 -311.663 197.287 -295.194L398.524 -148.998C420.817 -132.802 427.163 -102.323 413.185 -78.5758L327.51 66.9745C312.251 92.8989 278.624 101.15 253.098 85.2334L15.893 -62.6716C-11.7801 -79.9268 -17.7093 -117.714 3.34911 -142.616L124.991 -286.457Z" stroke="#0C0C0C" stroke-opacity="0.08"/>
</g>
<defs>
<clipPath id="clip0_275_8168">
<rect width="335" height="230" rx="24" fill="white"/>
</clipPath>
</defs>
</svg>
